<?xml version="1.0" encoding="utf-8" standalone="no"?>
<!DOCTYPE svg PUBLIC "-//W3C//DTD SVG 1.1//EN"
  "http://www.w3.org/Graphics/SVG/1.1/DTD/svg11.dtd">
<svg xmlns:xlink="http://www.w3.org/1999/xlink" width="432pt" height="288pt" viewBox="0 0 432 288" xmlns="http://www.w3.org/2000/svg" version="1.1">
 <metadata>
  <rdf:RDF xmlns:dc="http://purl.org/dc/elements/1.1/" xmlns:cc="http://creativecommons.org/ns#" xmlns:rdf="http://www.w3.org/1999/02/22-rdf-syntax-ns#">
   <cc:Work>
    <dc:type rdf:resource="http://purl.org/dc/dcmitype/StillImage"/>
    <dc:date>2022-09-03T12:13:44.870177</dc:date>
    <dc:format>image/svg+xml</dc:format>
    <dc:creator>
     <cc:Agent>
      <dc:title>Matplotlib v3.5.3, https://matplotlib.org/</dc:title>
     </cc:Agent>
    </dc:creator>
   </cc:Work>
  </rdf:RDF>
 </metadata>
 <defs>
  <style type="text/css">*{stroke-linejoin: round; stroke-linecap: butt}</style>
 </defs>
 <g id="figure_1">
  <g id="patch_1">
   <path d="M 0 288 
L 432 288 
L 432 0 
L 0 0 
z
" style="fill: #ffffff"/>
  </g>
  <g id="axes_1">
   <g id="patch_2">
    <path d="M 56.8 237.2 
L 421.2 237.2 
L 421.2 10.8 
L 56.8 10.8 
z
" style="fill: #ffffff"/>
   </g>
   <g id="matplotlib.axis_1">
    <g id="xtick_1">
     <g id="line2d_1">
      <path d="M 73.363636 237.2 
L 73.363636 10.8 
" clip-path="url(#pbaee34f716)" style="fill: none; stroke: #b0b0b0; stroke-width: 0.8; stroke-linecap: square"/>
     </g>
     <g id="line2d_2">
      <defs>
       <path id="md0f0ed54cc" d="M 0 0 
L 0 3.5 
" style="stroke: #000000; stroke-width: 0.8"/>
      </defs>
      <g>
       <use xlink:href="#md0f0ed54cc" x="73.363636" y="237.2" style="stroke: #000000; stroke-width: 0.8"/>
      </g>
     </g>
     <g id="text_1">
      <!-- 0 -->
      <g transform="translate(70.182386 251.798437)scale(0.1 -0.1)">
       <defs>
        <path id="DejaVuSans-30" d="M 2034 4250 
Q 1547 4250 1301 3770 
Q 1056 3291 1056 2328 
Q 1056 1369 1301 889 
Q 1547 409 2034 409 
Q 2525 409 2770 889 
Q 3016 1369 3016 2328 
Q 3016 3291 2770 3770 
Q 2525 4250 2034 4250 
z
M 2034 4750 
Q 2819 4750 3233 4129 
Q 3647 3509 3647 2328 
Q 3647 1150 3233 529 
Q 2819 -91 2034 -91 
Q 1250 -91 836 529 
Q 422 1150 422 2328 
Q 422 3509 836 4129 
Q 1250 4750 2034 4750 
z
" transform="scale(0.015625)"/>
       </defs>
       <use xlink:href="#DejaVuSans-30"/>
      </g>
     </g>
    </g>
    <g id="xtick_2">
     <g id="line2d_3">
      <path d="M 139.750956 237.2 
L 139.750956 10.8 
" clip-path="url(#pbaee34f716)" style="fill: none; stroke: #b0b0b0; stroke-width: 0.8; stroke-linecap: square"/>
     </g>
     <g id="line2d_4">
      <g>
       <use xlink:href="#md0f0ed54cc" x="139.750956" y="237.2" style="stroke: #000000; stroke-width: 0.8"/>
      </g>
     </g>
     <g id="text_2">
      <!-- 100 -->
      <g transform="translate(130.207206 251.798437)scale(0.1 -0.1)">
       <defs>
        <path id="DejaVuSans-31" d="M 794 531 
L 1825 531 
L 1825 4091 
L 703 3866 
L 703 4441 
L 1819 4666 
L 2450 4666 
L 2450 531 
L 3481 531 
L 3481 0 
L 794 0 
L 794 531 
z
" transform="scale(0.015625)"/>
       </defs>
       <use xlink:href="#DejaVuSans-31"/>
       <use xlink:href="#DejaVuSans-30" x="63.623047"/>
       <use xlink:href="#DejaVuSans-30" x="127.246094"/>
      </g>
     </g>
    </g>
    <g id="xtick_3">
     <g id="line2d_5">
      <path d="M 206.138277 237.2 
L 206.138277 10.8 
" clip-path="url(#pbaee34f716)" style="fill: none; stroke: #b0b0b0; stroke-width: 0.8; stroke-linecap: square"/>
     </g>
     <g id="line2d_6">
      <g>
       <use xlink:href="#md0f0ed54cc" x="206.138277" y="237.2" style="stroke: #000000; stroke-width: 0.8"/>
      </g>
     </g>
     <g id="text_3">
      <!-- 200 -->
      <g transform="translate(196.594527 251.798437)scale(0.1 -0.1)">
       <defs>
        <path id="DejaVuSans-32" d="M 1228 531 
L 3431 531 
L 3431 0 
L 469 0 
L 469 531 
Q 828 903 1448 1529 
Q 2069 2156 2228 2338 
Q 2531 2678 2651 2914 
Q 2772 3150 2772 3378 
Q 2772 3750 2511 3984 
Q 2250 4219 1831 4219 
Q 1534 4219 1204 4116 
Q 875 4013 500 3803 
L 500 4441 
Q 881 4594 1212 4672 
Q 1544 4750 1819 4750 
Q 2544 4750 2975 4387 
Q 3406 4025 3406 3419 
Q 3406 3131 3298 2873 
Q 3191 2616 2906 2266 
Q 2828 2175 2409 1742 
Q 1991 1309 1228 531 
z
" transform="scale(0.015625)"/>
       </defs>
       <use xlink:href="#DejaVuSans-32"/>
       <use xlink:href="#DejaVuSans-30" x="63.623047"/>
       <use xlink:href="#DejaVuSans-30" x="127.246094"/>
      </g>
     </g>
    </g>
    <g id="xtick_4">
     <g id="line2d_7">
      <path d="M 272.525597 237.2 
L 272.525597 10.8 
" clip-path="url(#pbaee34f716)" style="fill: none; stroke: #b0b0b0; stroke-width: 0.8; stroke-linecap: square"/>
     </g>
     <g id="line2d_8">
      <g>
       <use xlink:href="#md0f0ed54cc" x="272.525597" y="237.2" style="stroke: #000000; stroke-width: 0.8"/>
      </g>
     </g>
     <g id="text_4">
      <!-- 300 -->
      <g transform="translate(262.981847 251.798437)scale(0.1 -0.1)">
       <defs>
        <path id="DejaVuSans-33" d="M 2597 2516 
Q 3050 2419 3304 2112 
Q 3559 1806 3559 1356 
Q 3559 666 3084 287 
Q 2609 -91 1734 -91 
Q 1441 -91 1130 -33 
Q 819 25 488 141 
L 488 750 
Q 750 597 1062 519 
Q 1375 441 1716 441 
Q 2309 441 2620 675 
Q 2931 909 2931 1356 
Q 2931 1769 2642 2001 
Q 2353 2234 1838 2234 
L 1294 2234 
L 1294 2753 
L 1863 2753 
Q 2328 2753 2575 2939 
Q 2822 3125 2822 3475 
Q 2822 3834 2567 4026 
Q 2313 4219 1838 4219 
Q 1578 4219 1281 4162 
Q 984 4106 628 3988 
L 628 4550 
Q 988 4650 1302 4700 
Q 1616 4750 1894 4750 
Q 2613 4750 3031 4423 
Q 3450 4097 3450 3541 
Q 3450 3153 3228 2886 
Q 3006 2619 2597 2516 
z
" transform="scale(0.015625)"/>
       </defs>
       <use xlink:href="#DejaVuSans-33"/>
       <use xlink:href="#DejaVuSans-30" x="63.623047"/>
       <use xlink:href="#DejaVuSans-30" x="127.246094"/>
      </g>
     </g>
    </g>
    <g id="xtick_5">
     <g id="line2d_9">
      <path d="M 338.912917 237.2 
L 338.912917 10.8 
" clip-path="url(#pbaee34f716)" style="fill: none; stroke: #b0b0b0; stroke-width: 0.8; stroke-linecap: square"/>
     </g>
     <g id="line2d_10">
      <g>
       <use xlink:href="#md0f0ed54cc" x="338.912917" y="237.2" style="stroke: #000000; stroke-width: 0.8"/>
      </g>
     </g>
     <g id="text_5">
      <!-- 400 -->
      <g transform="translate(329.369167 251.798437)scale(0.1 -0.1)">
       <defs>
        <path id="DejaVuSans-34" d="M 2419 4116 
L 825 1625 
L 2419 1625 
L 2419 4116 
z
M 2253 4666 
L 3047 4666 
L 3047 1625 
L 3713 1625 
L 3713 1100 
L 3047 1100 
L 3047 0 
L 2419 0 
L 2419 1100 
L 313 1100 
L 313 1709 
L 2253 4666 
z
" transform="scale(0.015625)"/>
       </defs>
       <use xlink:href="#DejaVuSans-34"/>
       <use xlink:href="#DejaVuSans-30" x="63.623047"/>
       <use xlink:href="#DejaVuSans-30" x="127.246094"/>
      </g>
     </g>
    </g>
    <g id="xtick_6">
     <g id="line2d_11">
      <path d="M 405.300237 237.2 
L 405.300237 10.8 
" clip-path="url(#pbaee34f716)" style="fill: none; stroke: #b0b0b0; stroke-width: 0.8; stroke-linecap: square"/>
     </g>
     <g id="line2d_12">
      <g>
       <use xlink:href="#md0f0ed54cc" x="405.300237" y="237.2" style="stroke: #000000; stroke-width: 0.8"/>
      </g>
     </g>
     <g id="text_6">
      <!-- 500 -->
      <g transform="translate(395.756487 251.798437)scale(0.1 -0.1)">
       <defs>
        <path id="DejaVuSans-35" d="M 691 4666 
L 3169 4666 
L 3169 4134 
L 1269 4134 
L 1269 2991 
Q 1406 3038 1543 3061 
Q 1681 3084 1819 3084 
Q 2600 3084 3056 2656 
Q 3513 2228 3513 1497 
Q 3513 744 3044 326 
Q 2575 -91 1722 -91 
Q 1428 -91 1123 -41 
Q 819 9 494 109 
L 494 744 
Q 775 591 1075 516 
Q 1375 441 1709 441 
Q 2250 441 2565 725 
Q 2881 1009 2881 1497 
Q 2881 1984 2565 2268 
Q 2250 2553 1709 2553 
Q 1456 2553 1204 2497 
Q 953 2441 691 2322 
L 691 4666 
z
" transform="scale(0.015625)"/>
       </defs>
       <use xlink:href="#DejaVuSans-35"/>
       <use xlink:href="#DejaVuSans-30" x="63.623047"/>
       <use xlink:href="#DejaVuSans-30" x="127.246094"/>
      </g>
     </g>
    </g>
    <g id="text_7">
     <!-- Generations -->
     <g transform="translate(208.502344 265.476562)scale(0.1 -0.1)">
      <defs>
       <path id="DejaVuSans-47" d="M 3809 666 
L 3809 1919 
L 2778 1919 
L 2778 2438 
L 4434 2438 
L 4434 434 
Q 4069 175 3628 42 
Q 3188 -91 2688 -91 
Q 1594 -91 976 548 
Q 359 1188 359 2328 
Q 359 3472 976 4111 
Q 1594 4750 2688 4750 
Q 3144 4750 3555 4637 
Q 3966 4525 4313 4306 
L 4313 3634 
Q 3963 3931 3569 4081 
Q 3175 4231 2741 4231 
Q 1884 4231 1454 3753 
Q 1025 3275 1025 2328 
Q 1025 1384 1454 906 
Q 1884 428 2741 428 
Q 3075 428 3337 486 
Q 3600 544 3809 666 
z
" transform="scale(0.015625)"/>
       <path id="DejaVuSans-65" d="M 3597 1894 
L 3597 1613 
L 953 1613 
Q 991 1019 1311 708 
Q 1631 397 2203 397 
Q 2534 397 2845 478 
Q 3156 559 3463 722 
L 3463 178 
Q 3153 47 2828 -22 
Q 2503 -91 2169 -91 
Q 1331 -91 842 396 
Q 353 884 353 1716 
Q 353 2575 817 3079 
Q 1281 3584 2069 3584 
Q 2775 3584 3186 3129 
Q 3597 2675 3597 1894 
z
M 3022 2063 
Q 3016 2534 2758 2815 
Q 2500 3097 2075 3097 
Q 1594 3097 1305 2825 
Q 1016 2553 972 2059 
L 3022 2063 
z
" transform="scale(0.015625)"/>
       <path id="DejaVuSans-6e" d="M 3513 2113 
L 3513 0 
L 2938 0 
L 2938 2094 
Q 2938 2591 2744 2837 
Q 2550 3084 2163 3084 
Q 1697 3084 1428 2787 
Q 1159 2491 1159 1978 
L 1159 0 
L 581 0 
L 581 3500 
L 1159 3500 
L 1159 2956 
Q 1366 3272 1645 3428 
Q 1925 3584 2291 3584 
Q 2894 3584 3203 3211 
Q 3513 2838 3513 2113 
z
" transform="scale(0.015625)"/>
       <path id="DejaVuSans-72" d="M 2631 2963 
Q 2534 3019 2420 3045 
Q 2306 3072 2169 3072 
Q 1681 3072 1420 2755 
Q 1159 2438 1159 1844 
L 1159 0 
L 581 0 
L 581 3500 
L 1159 3500 
L 1159 2956 
Q 1341 3275 1631 3429 
Q 1922 3584 2338 3584 
Q 2397 3584 2469 3576 
Q 2541 3569 2628 3553 
L 2631 2963 
z
" transform="scale(0.015625)"/>
       <path id="DejaVuSans-61" d="M 2194 1759 
Q 1497 1759 1228 1600 
Q 959 1441 959 1056 
Q 959 750 1161 570 
Q 1363 391 1709 391 
Q 2188 391 2477 730 
Q 2766 1069 2766 1631 
L 2766 1759 
L 2194 1759 
z
M 3341 1997 
L 3341 0 
L 2766 0 
L 2766 531 
Q 2569 213 2275 61 
Q 1981 -91 1556 -91 
Q 1019 -91 701 211 
Q 384 513 384 1019 
Q 384 1609 779 1909 
Q 1175 2209 1959 2209 
L 2766 2209 
L 2766 2266 
Q 2766 2663 2505 2880 
Q 2244 3097 1772 3097 
Q 1472 3097 1187 3025 
Q 903 2953 641 2809 
L 641 3341 
Q 956 3463 1253 3523 
Q 1550 3584 1831 3584 
Q 2591 3584 2966 3190 
Q 3341 2797 3341 1997 
z
" transform="scale(0.015625)"/>
       <path id="DejaVuSans-74" d="M 1172 4494 
L 1172 3500 
L 2356 3500 
L 2356 3053 
L 1172 3053 
L 1172 1153 
Q 1172 725 1289 603 
Q 1406 481 1766 481 
L 2356 481 
L 2356 0 
L 1766 0 
Q 1100 0 847 248 
Q 594 497 594 1153 
L 594 3053 
L 172 3053 
L 172 3500 
L 594 3500 
L 594 4494 
L 1172 4494 
z
" transform="scale(0.015625)"/>
       <path id="DejaVuSans-69" d="M 603 3500 
L 1178 3500 
L 1178 0 
L 603 0 
L 603 3500 
z
M 603 4863 
L 1178 4863 
L 1178 4134 
L 603 4134 
L 603 4863 
z
" transform="scale(0.015625)"/>
       <path id="DejaVuSans-6f" d="M 1959 3097 
Q 1497 3097 1228 2736 
Q 959 2375 959 1747 
Q 959 1119 1226 758 
Q 1494 397 1959 397 
Q 2419 397 2687 759 
Q 2956 1122 2956 1747 
Q 2956 2369 2687 2733 
Q 2419 3097 1959 3097 
z
M 1959 3584 
Q 2709 3584 3137 3096 
Q 3566 2609 3566 1747 
Q 3566 888 3137 398 
Q 2709 -91 1959 -91 
Q 1206 -91 779 398 
Q 353 888 353 1747 
Q 353 2609 779 3096 
Q 1206 3584 1959 3584 
z
" transform="scale(0.015625)"/>
       <path id="DejaVuSans-73" d="M 2834 3397 
L 2834 2853 
Q 2591 2978 2328 3040 
Q 2066 3103 1784 3103 
Q 1356 3103 1142 2972 
Q 928 2841 928 2578 
Q 928 2378 1081 2264 
Q 1234 2150 1697 2047 
L 1894 2003 
Q 2506 1872 2764 1633 
Q 3022 1394 3022 966 
Q 3022 478 2636 193 
Q 2250 -91 1575 -91 
Q 1294 -91 989 -36 
Q 684 19 347 128 
L 347 722 
Q 666 556 975 473 
Q 1284 391 1588 391 
Q 1994 391 2212 530 
Q 2431 669 2431 922 
Q 2431 1156 2273 1281 
Q 2116 1406 1581 1522 
L 1381 1569 
Q 847 1681 609 1914 
Q 372 2147 372 2553 
Q 372 3047 722 3315 
Q 1072 3584 1716 3584 
Q 2034 3584 2315 3537 
Q 2597 3491 2834 3397 
z
" transform="scale(0.015625)"/>
      </defs>
      <use xlink:href="#DejaVuSans-47"/>
      <use xlink:href="#DejaVuSans-65" x="77.490234"/>
      <use xlink:href="#DejaVuSans-6e" x="139.013672"/>
      <use xlink:href="#DejaVuSans-65" x="202.392578"/>
      <use xlink:href="#DejaVuSans-72" x="263.916016"/>
      <use xlink:href="#DejaVuSans-61" x="305.029297"/>
      <use xlink:href="#DejaVuSans-74" x="366.308594"/>
      <use xlink:href="#DejaVuSans-69" x="405.517578"/>
      <use xlink:href="#DejaVuSans-6f" x="433.300781"/>
      <use xlink:href="#DejaVuSans-6e" x="494.482422"/>
      <use xlink:href="#DejaVuSans-73" x="557.861328"/>
     </g>
    </g>
   </g>
   <g id="matplotlib.axis_2">
    <g id="ytick_1">
     <g id="line2d_13">
      <path d="M 56.8 227.342947 
L 421.2 227.342947 
" clip-path="url(#pbaee34f716)" style="fill: none; stroke: #b0b0b0; stroke-width: 0.8; stroke-linecap: square"/>
     </g>
     <g id="line2d_14">
      <defs>
       <path id="m0d93e6e9a2" d="M 0 0 
L -3.5 0 
" style="stroke: #000000; stroke-width: 0.8"/>
      </defs>
      <g>
       <use xlink:href="#m0d93e6e9a2" x="56.8" y="227.342947" style="stroke: #000000; stroke-width: 0.8"/>
      </g>
     </g>
     <g id="text_8">
      <!-- 0.0 -->
      <g transform="translate(33.896875 231.142166)scale(0.1 -0.1)">
       <defs>
        <path id="DejaVuSans-2e" d="M 684 794 
L 1344 794 
L 1344 0 
L 684 0 
L 684 794 
z
" transform="scale(0.015625)"/>
       </defs>
       <use xlink:href="#DejaVuSans-30"/>
       <use xlink:href="#DejaVuSans-2e" x="63.623047"/>
       <use xlink:href="#DejaVuSans-30" x="95.410156"/>
      </g>
     </g>
    </g>
    <g id="ytick_2">
     <g id="line2d_15">
      <path d="M 56.8 180.686115 
L 421.2 180.686115 
" clip-path="url(#pbaee34f716)" style="fill: none; stroke: #b0b0b0; stroke-width: 0.8; stroke-linecap: square"/>
     </g>
     <g id="line2d_16">
      <g>
       <use xlink:href="#m0d93e6e9a2" x="56.8" y="180.686115" style="stroke: #000000; stroke-width: 0.8"/>
      </g>
     </g>
     <g id="text_9">
      <!-- 0.2 -->
      <g transform="translate(33.896875 184.485334)scale(0.1 -0.1)">
       <use xlink:href="#DejaVuSans-30"/>
       <use xlink:href="#DejaVuSans-2e" x="63.623047"/>
       <use xlink:href="#DejaVuSans-32" x="95.410156"/>
      </g>
     </g>
    </g>
    <g id="ytick_3">
     <g id="line2d_17">
      <path d="M 56.8 134.029284 
L 421.2 134.029284 
" clip-path="url(#pbaee34f716)" style="fill: none; stroke: #b0b0b0; stroke-width: 0.8; stroke-linecap: square"/>
     </g>
     <g id="line2d_18">
      <g>
       <use xlink:href="#m0d93e6e9a2" x="56.8" y="134.029284" style="stroke: #000000; stroke-width: 0.8"/>
      </g>
     </g>
     <g id="text_10">
      <!-- 0.4 -->
      <g transform="translate(33.896875 137.828502)scale(0.1 -0.1)">
       <use xlink:href="#DejaVuSans-30"/>
       <use xlink:href="#DejaVuSans-2e" x="63.623047"/>
       <use xlink:href="#DejaVuSans-34" x="95.410156"/>
      </g>
     </g>
    </g>
    <g id="ytick_4">
     <g id="line2d_19">
      <path d="M 56.8 87.372452 
L 421.2 87.372452 
" clip-path="url(#pbaee34f716)" style="fill: none; stroke: #b0b0b0; stroke-width: 0.8; stroke-linecap: square"/>
     </g>
     <g id="line2d_20">
      <g>
       <use xlink:href="#m0d93e6e9a2" x="56.8" y="87.372452" style="stroke: #000000; stroke-width: 0.8"/>
      </g>
     </g>
     <g id="text_11">
      <!-- 0.6 -->
      <g transform="translate(33.896875 91.171671)scale(0.1 -0.1)">
       <defs>
        <path id="DejaVuSans-36" d="M 2113 2584 
Q 1688 2584 1439 2293 
Q 1191 2003 1191 1497 
Q 1191 994 1439 701 
Q 1688 409 2113 409 
Q 2538 409 2786 701 
Q 3034 994 3034 1497 
Q 3034 2003 2786 2293 
Q 2538 2584 2113 2584 
z
M 3366 4563 
L 3366 3988 
Q 3128 4100 2886 4159 
Q 2644 4219 2406 4219 
Q 1781 4219 1451 3797 
Q 1122 3375 1075 2522 
Q 1259 2794 1537 2939 
Q 1816 3084 2150 3084 
Q 2853 3084 3261 2657 
Q 3669 2231 3669 1497 
Q 3669 778 3244 343 
Q 2819 -91 2113 -91 
Q 1303 -91 875 529 
Q 447 1150 447 2328 
Q 447 3434 972 4092 
Q 1497 4750 2381 4750 
Q 2619 4750 2861 4703 
Q 3103 4656 3366 4563 
z
" transform="scale(0.015625)"/>
       </defs>
       <use xlink:href="#DejaVuSans-30"/>
       <use xlink:href="#DejaVuSans-2e" x="63.623047"/>
       <use xlink:href="#DejaVuSans-36" x="95.410156"/>
      </g>
     </g>
    </g>
    <g id="ytick_5">
     <g id="line2d_21">
      <path d="M 56.8 40.71562 
L 421.2 40.71562 
" clip-path="url(#pbaee34f716)" style="fill: none; stroke: #b0b0b0; stroke-width: 0.8; stroke-linecap: square"/>
     </g>
     <g id="line2d_22">
      <g>
       <use xlink:href="#m0d93e6e9a2" x="56.8" y="40.71562" style="stroke: #000000; stroke-width: 0.8"/>
      </g>
     </g>
     <g id="text_12">
      <!-- 0.8 -->
      <g transform="translate(33.896875 44.514839)scale(0.1 -0.1)">
       <defs>
        <path id="DejaVuSans-38" d="M 2034 2216 
Q 1584 2216 1326 1975 
Q 1069 1734 1069 1313 
Q 1069 891 1326 650 
Q 1584 409 2034 409 
Q 2484 409 2743 651 
Q 3003 894 3003 1313 
Q 3003 1734 2745 1975 
Q 2488 2216 2034 2216 
z
M 1403 2484 
Q 997 2584 770 2862 
Q 544 3141 544 3541 
Q 544 4100 942 4425 
Q 1341 4750 2034 4750 
Q 2731 4750 3128 4425 
Q 3525 4100 3525 3541 
Q 3525 3141 3298 2862 
Q 3072 2584 2669 2484 
Q 3125 2378 3379 2068 
Q 3634 1759 3634 1313 
Q 3634 634 3220 271 
Q 2806 -91 2034 -91 
Q 1263 -91 848 271 
Q 434 634 434 1313 
Q 434 1759 690 2068 
Q 947 2378 1403 2484 
z
M 1172 3481 
Q 1172 3119 1398 2916 
Q 1625 2713 2034 2713 
Q 2441 2713 2670 2916 
Q 2900 3119 2900 3481 
Q 2900 3844 2670 4047 
Q 2441 4250 2034 4250 
Q 1625 4250 1398 4047 
Q 1172 3844 1172 3481 
z
" transform="scale(0.015625)"/>
       </defs>
       <use xlink:href="#DejaVuSans-30"/>
       <use xlink:href="#DejaVuSans-2e" x="63.623047"/>
       <use xlink:href="#DejaVuSans-38" x="95.410156"/>
      </g>
     </g>
    </g>
    <g id="text_13">
     <!-- Fitness -->
     <g transform="translate(27.817187 141.317187)rotate(-90)scale(0.1 -0.1)">
      <defs>
       <path id="DejaVuSans-46" d="M 628 4666 
L 3309 4666 
L 3309 4134 
L 1259 4134 
L 1259 2759 
L 3109 2759 
L 3109 2228 
L 1259 2228 
L 1259 0 
L 628 0 
L 628 4666 
z
" transform="scale(0.015625)"/>
      </defs>
      <use xlink:href="#DejaVuSans-46"/>
      <use xlink:href="#DejaVuSans-69" x="50.269531"/>
      <use xlink:href="#DejaVuSans-74" x="78.052734"/>
      <use xlink:href="#DejaVuSans-6e" x="117.261719"/>
      <use xlink:href="#DejaVuSans-65" x="180.640625"/>
      <use xlink:href="#DejaVuSans-73" x="242.164062"/>
      <use xlink:href="#DejaVuSans-73" x="294.263672"/>
     </g>
    </g>
   </g>
   <g id="line2d_23">
    <path d="M 73.363636 124 
L 74.02751 159.922746 
L 74.691383 161.967181 
L 75.355256 160.965943 
L 76.019129 159.033055 
L 76.683002 158.192709 
L 77.346876 160.535488 
L 78.010749 158.183762 
L 78.674622 158.152795 
L 80.002368 155.642531 
L 80.666242 157.756252 
L 81.330115 156.817006 
L 82.657861 159.196809 
L 83.321734 158.385246 
L 83.985608 161.015551 
L 84.649481 160.633063 
L 85.313354 158.776176 
L 85.977227 157.980464 
L 86.6411 159.33554 
L 87.304974 158.348603 
L 87.968847 159.662201 
L 88.63272 159.373818 
L 89.296593 159.307095 
L 89.960466 159.524337 
L 90.62434 158.805632 
L 91.288213 159.487062 
L 91.952086 156.653227 
L 92.615959 157.291976 
L 93.279832 158.213185 
L 93.943706 157.424875 
L 94.607579 158.973428 
L 95.271452 158.755738 
L 95.935325 161.071035 
L 96.599198 158.97379 
L 97.263072 158.107771 
L 97.926945 156.620282 
L 98.590818 157.68834 
L 99.254691 158.405848 
L 99.918564 158.286457 
L 100.582438 157.348828 
L 101.246311 158.629732 
L 101.910184 158.763974 
L 102.574057 157.576395 
L 103.23793 157.734936 
L 103.901804 159.933985 
L 104.565677 160.437822 
L 105.22955 159.581999 
L 105.893423 160.579238 
L 106.557296 159.624974 
L 107.22117 158.008317 
L 107.885043 158.750282 
L 108.548916 159.936617 
L 109.212789 159.921381 
L 109.876662 160.939417 
L 110.540536 158.230463 
L 111.204409 157.789113 
L 111.868282 156.578018 
L 112.532155 155.980352 
L 113.196028 157.80518 
L 113.859902 156.67848 
L 114.523775 157.157796 
L 115.187648 159.067287 
L 115.851521 158.608749 
L 116.515394 160.529566 
L 117.179268 161.164211 
L 117.843141 159.947285 
L 118.507014 160.595403 
L 119.170887 160.309734 
L 119.83476 157.447337 
L 120.498634 159.355443 
L 121.162507 159.165784 
L 121.82638 156.877297 
L 122.490253 157.468485 
L 123.154126 160.483335 
L 123.818 160.868789 
L 124.481873 162.67462 
L 125.145746 161.55273 
L 126.473492 159.819557 
L 127.137366 160.21229 
L 127.801239 159.080007 
L 128.465112 159.951531 
L 129.128985 158.972151 
L 129.792858 159.9609 
L 130.456732 161.234919 
L 131.120605 160.835985 
L 131.784478 160.29651 
L 132.448351 160.694628 
L 133.112224 160.585819 
L 133.776098 161.404376 
L 134.439971 161.916239 
L 135.767717 159.213241 
L 136.43159 157.664741 
L 137.095464 157.697625 
L 137.759337 158.505437 
L 138.42321 160.759107 
L 139.087083 161.106048 
L 139.750956 160.893022 
L 140.41483 161.424692 
L 141.078703 161.596478 
L 141.742576 161.353981 
L 142.406449 159.868649 
L 143.734196 159.62744 
L 144.398069 160.122263 
L 145.061942 159.842323 
L 145.725815 160.198254 
L 147.053562 158.349957 
L 147.717435 160.011733 
L 148.381308 159.09078 
L 149.045181 160.044088 
L 149.709054 159.172288 
L 150.372928 159.643117 
L 151.036801 158.735726 
L 151.700674 158.211266 
L 152.364547 158.503432 
L 153.02842 159.261065 
L 153.692294 160.445782 
L 154.356167 160.216145 
L 155.02004 159.15444 
L 155.683913 158.525506 
L 156.347786 157.022549 
L 157.01166 156.794164 
L 157.675533 154.772745 
L 158.339406 156.087338 
L 159.003279 155.634958 
L 159.667152 156.316497 
L 160.994899 158.598366 
L 161.658772 157.91107 
L 162.322645 158.039416 
L 162.986518 157.445224 
L 163.650392 158.385384 
L 164.314265 158.158833 
L 164.978138 159.803139 
L 166.305884 155.478615 
L 166.969758 157.726269 
L 167.633631 158.503966 
L 168.297504 159.634403 
L 168.961377 159.263945 
L 169.625251 159.281219 
L 170.289124 158.612604 
L 170.952997 159.850351 
L 171.61687 158.59512 
L 172.280743 158.49113 
L 172.944617 159.187022 
L 173.60849 159.33061 
L 174.272363 158.31717 
L 174.936236 158.186128 
L 175.600109 156.229618 
L 176.263983 157.332682 
L 176.927856 156.960277 
L 177.591729 156.958191 
L 178.255602 156.540924 
L 178.919475 156.756573 
L 179.583349 157.095627 
L 180.247222 158.538438 
L 180.911095 156.948449 
L 181.574968 158.835501 
L 182.238841 157.81819 
L 182.902715 157.6705 
L 183.566588 157.728209 
L 184.230461 158.078849 
L 184.894334 158.162473 
L 185.558207 158.655073 
L 186.222081 158.509154 
L 186.885954 160.095855 
L 187.549827 160.794114 
L 188.2137 161.227791 
L 188.877573 160.289125 
L 189.541447 159.82184 
L 190.20532 158.523821 
L 190.869193 159.351037 
L 191.533066 159.713195 
L 192.196939 160.600469 
L 192.860813 159.470823 
L 194.852432 158.182687 
L 195.516305 156.579658 
L 196.180179 157.680165 
L 196.844052 156.858912 
L 197.507925 157.122504 
L 198.171798 157.544387 
L 198.835671 158.253141 
L 199.499545 158.629941 
L 200.163418 158.449128 
L 200.827291 158.116705 
L 201.491164 158.368297 
L 202.155037 159.219076 
L 202.818911 159.487218 
L 203.482784 160.222293 
L 204.146657 160.413606 
L 204.81053 160.467007 
L 205.474403 158.843636 
L 206.138277 158.859086 
L 206.80215 157.93577 
L 207.466023 158.178397 
L 208.129896 158.682854 
L 208.793769 158.363798 
L 209.457643 157.91309 
L 210.121516 158.626258 
L 210.785389 156.815188 
L 211.449262 156.328607 
L 212.113135 157.455565 
L 212.777009 156.94575 
L 213.440882 159.45817 
L 214.104755 158.534449 
L 214.768628 159.347711 
L 215.432501 158.927003 
L 216.096375 159.957096 
L 216.760248 157.466883 
L 217.424121 157.709726 
L 218.087994 158.198393 
L 218.751867 156.448053 
L 219.415741 157.1934 
L 220.079614 157.077511 
L 220.743487 157.88868 
L 221.40736 159.250917 
L 222.071233 159.952859 
L 222.735107 157.209348 
L 223.39898 157.318977 
L 224.726726 158.518524 
L 225.390599 160.049315 
L 226.054473 160.563485 
L 226.718346 159.056915 
L 227.382219 156.96937 
L 228.046092 155.985929 
L 228.709965 156.217968 
L 229.373839 157.387625 
L 230.037712 157.216043 
L 230.701585 158.926901 
L 231.365458 158.153231 
L 232.693205 154.832403 
L 233.357078 155.835546 
L 234.020951 156.566131 
L 234.684824 157.736762 
L 236.012571 157.30969 
L 236.676444 158.540072 
L 237.340317 159.327841 
L 238.00419 158.724496 
L 239.331937 156.273808 
L 239.99581 157.413394 
L 240.659683 156.99698 
L 241.323556 156.73724 
L 241.987429 156.814359 
L 242.651303 158.237075 
L 243.315176 158.385263 
L 243.979049 158.407182 
L 244.642922 158.015318 
L 245.306795 159.190292 
L 246.634542 158.808672 
L 247.298415 156.953854 
L 247.962288 157.964857 
L 248.626161 159.511083 
L 249.290035 159.016095 
L 249.953908 158.729742 
L 250.617781 156.106725 
L 251.281654 156.476845 
L 251.945527 157.523548 
L 252.609401 157.15655 
L 253.273274 156.629613 
L 253.937147 156.80433 
L 254.60102 155.448757 
L 255.264893 155.750694 
L 255.928767 155.370499 
L 257.256513 156.91726 
L 257.920386 158.067917 
L 258.584259 157.658663 
L 259.248133 155.32653 
L 259.912006 154.765538 
L 260.575879 156.41833 
L 261.903625 156.919368 
L 262.567499 155.323826 
L 263.231372 154.794315 
L 263.895245 155.664587 
L 264.559118 157.314499 
L 265.222991 158.246799 
L 265.886865 159.587302 
L 266.550738 157.982191 
L 267.214611 157.946167 
L 267.878484 157.59577 
L 268.542357 158.489485 
L 269.206231 157.816753 
L 269.870104 155.978421 
L 270.533977 155.0601 
L 271.19785 156.382985 
L 271.861723 157.194988 
L 272.525597 157.803809 
L 273.18947 157.522016 
L 273.853343 156.913232 
L 274.517216 158.402747 
L 275.181089 159.034714 
L 275.844963 158.764733 
L 276.508836 159.483892 
L 277.172709 159.806031 
L 277.836582 158.75509 
L 278.500455 159.104378 
L 279.164329 159.044957 
L 279.828202 157.408321 
L 280.492075 159.304354 
L 281.155948 160.404658 
L 281.819821 158.710351 
L 282.483695 159.460358 
L 283.147568 158.968404 
L 283.811441 159.175005 
L 284.475314 158.503854 
L 285.139187 156.99966 
L 285.803061 156.85549 
L 286.466934 157.136621 
L 287.130807 157.036265 
L 287.79468 157.55837 
L 288.458553 157.130905 
L 289.122427 157.971319 
L 289.7863 157.94634 
L 290.450173 157.711636 
L 291.114046 157.804479 
L 291.777919 159.440521 
L 292.441793 158.11564 
L 293.769539 154.822431 
L 294.433412 156.483339 
L 295.097285 157.160111 
L 295.761159 156.494431 
L 296.425032 157.105571 
L 297.088905 158.058557 
L 297.752778 157.52012 
L 298.416651 157.582002 
L 299.744398 155.188168 
L 300.408271 155.652141 
L 301.736017 157.239811 
L 302.399891 155.581304 
L 303.063764 155.437223 
L 304.39151 156.686969 
L 305.055383 157.675508 
L 305.719257 157.704325 
L 306.38313 157.503601 
L 307.047003 158.010091 
L 307.710876 156.74046 
L 308.374749 155.861786 
L 309.038623 157.390038 
L 309.702496 157.748054 
L 310.366369 157.282996 
L 311.030242 156.534655 
L 311.694116 157.312591 
L 312.357989 157.548748 
L 313.021862 158.078901 
L 313.685735 156.653673 
L 314.349608 157.195822 
L 315.013482 156.119362 
L 315.677355 156.961468 
L 316.341228 156.503299 
L 317.005101 157.089597 
L 317.668974 156.868969 
L 318.332848 157.399882 
L 318.996721 158.887719 
L 319.660594 160.030893 
L 320.324467 160.515056 
L 320.98834 159.073119 
L 321.652214 159.75763 
L 322.316087 157.208237 
L 322.97996 156.762722 
L 323.643833 155.201906 
L 324.307706 155.855619 
L 324.97158 156.7913 
L 325.635453 155.623828 
L 326.299326 156.162185 
L 326.963199 157.040239 
L 327.627072 157.547514 
L 328.290946 157.099342 
L 328.954819 159.133728 
L 330.282565 156.546995 
L 331.610312 157.814025 
L 332.274185 158.179559 
L 332.938058 156.659678 
L 333.601931 156.555147 
L 334.929678 158.954033 
L 335.593551 159.446858 
L 336.257424 160.539993 
L 336.921297 159.060045 
L 338.249044 158.107021 
L 338.912917 157.175151 
L 340.240663 159.971338 
L 340.904536 158.569886 
L 342.232283 159.091154 
L 342.896156 157.810858 
L 343.560029 159.632228 
L 344.223902 159.138135 
L 344.887776 159.402457 
L 345.551649 159.319387 
L 346.215522 160.69204 
L 346.879395 159.890077 
L 347.543268 158.479846 
L 348.207142 159.595716 
L 348.871015 157.707263 
L 349.534888 157.000468 
L 350.198761 157.097958 
L 350.862634 157.362132 
L 351.526508 156.47584 
L 352.190381 157.554836 
L 352.854254 157.176096 
L 353.518127 157.669952 
L 354.182 157.242622 
L 354.845874 156.950468 
L 355.509747 157.850775 
L 356.17362 158.060118 
L 356.837493 157.811814 
L 357.501366 156.89986 
L 358.16524 156.221502 
L 358.829113 156.631868 
L 359.492986 158.063746 
L 360.156859 157.736376 
L 360.820732 158.293187 
L 361.484606 157.856674 
L 362.148479 157.911231 
L 362.812352 157.095035 
L 363.476225 158.0729 
L 364.140098 158.275694 
L 364.803972 159.508792 
L 366.131718 156.602894 
L 366.795591 156.774252 
L 367.459464 157.578627 
L 368.123338 157.904082 
L 368.787211 158.056203 
L 369.451084 157.470176 
L 370.114957 158.977788 
L 371.442704 157.615872 
L 372.106577 158.17803 
L 372.77045 157.507051 
L 373.434323 157.539332 
L 374.098196 157.241786 
L 374.76207 157.594072 
L 375.425943 156.156828 
L 376.089816 156.608002 
L 376.753689 157.820658 
L 378.081436 157.916904 
L 378.745309 157.438154 
L 379.409182 158.274551 
L 380.073055 157.809946 
L 380.736928 157.941186 
L 381.400802 160.428736 
L 382.064675 160.395223 
L 382.728548 159.093198 
L 383.392421 159.272912 
L 384.056294 159.827184 
L 384.720168 158.717855 
L 385.384041 158.165917 
L 386.711787 158.020125 
L 387.37566 157.432922 
L 388.039534 157.321198 
L 388.703407 157.856069 
L 389.36728 157.459812 
L 390.031153 158.850943 
L 390.695026 157.754967 
L 391.3589 157.814167 
L 392.022773 158.625615 
L 392.686646 158.407423 
L 393.350519 157.099027 
L 394.014392 156.459192 
L 394.678266 155.123911 
L 395.342139 154.974074 
L 396.006012 154.432053 
L 396.669885 155.514378 
L 397.333758 155.12955 
L 397.997632 155.493236 
L 398.661505 156.452856 
L 399.325378 155.645922 
L 399.989251 157.465128 
L 400.653124 156.590113 
L 401.316998 157.800796 
L 401.980871 158.376577 
L 402.644744 156.669734 
L 403.308617 156.91537 
L 403.97249 157.760935 
L 404.636364 156.980688 
L 404.636364 156.980688 
" clip-path="url(#pbaee34f716)" style="fill: none; stroke: #0000ff; stroke-width: 1.5; stroke-linecap: square"/>
   </g>
   <g id="line2d_24">
    <path d="M 73.363636 226.909091 
L 74.02751 194.962092 
L 74.691383 186.68405 
L 75.355256 180.761435 
L 76.019129 173.772743 
L 76.683002 170.483523 
L 77.346876 171.787747 
L 79.338495 167.192251 
L 80.002368 166.612857 
L 80.666242 167.218821 
L 81.330115 166.803977 
L 81.993988 166.599951 
L 82.657861 167.600841 
L 83.321734 167.732336 
L 83.985608 167.28915 
L 84.649481 168.532835 
L 85.313354 165.558295 
L 85.977227 166.686386 
L 86.6411 165.599469 
L 87.304974 166.506947 
L 87.968847 167.086257 
L 88.63272 166.331272 
L 89.296593 167.07254 
L 89.960466 166.863565 
L 90.62434 166.112606 
L 91.288213 166.630058 
L 91.952086 166.477184 
L 92.615959 165.615389 
L 93.279832 168.085846 
L 93.943706 165.331753 
L 94.607579 165.091194 
L 95.271452 165.554165 
L 95.935325 167.370846 
L 96.599198 165.829338 
L 97.263072 166.571908 
L 97.926945 165.109258 
L 98.590818 166.584249 
L 99.254691 166.154373 
L 99.918564 165.04123 
L 100.582438 164.640644 
L 101.246311 166.847741 
L 101.910184 166.742068 
L 102.574057 164.954767 
L 103.23793 165.168839 
L 103.901804 166.900465 
L 104.565677 167.708776 
L 105.893423 166.435615 
L 106.557296 165.250948 
L 107.22117 165.158596 
L 107.885043 165.778025 
L 108.548916 166.836338 
L 109.212789 165.709929 
L 109.876662 166.77247 
L 110.540536 167.140926 
L 111.204409 167.94227 
L 111.868282 165.501291 
L 112.532155 165.29973 
L 113.196028 167.639802 
L 113.859902 165.667011 
L 114.523775 165.924672 
L 115.851521 165.982302 
L 117.843141 168.053711 
L 118.507014 166.906557 
L 119.170887 167.152505 
L 119.83476 166.307258 
L 120.498634 167.215234 
L 121.162507 166.732748 
L 121.82638 166.834648 
L 122.490253 165.161518 
L 123.154126 167.766578 
L 123.818 168.095657 
L 124.481873 169.483791 
L 125.145746 167.863638 
L 125.809619 166.841808 
L 126.473492 166.041118 
L 127.137366 167.48504 
L 127.801239 166.37822 
L 128.465112 166.556765 
L 129.128985 166.152521 
L 129.792858 166.628002 
L 130.456732 168.379778 
L 131.120605 168.06026 
L 131.784478 167.344579 
L 132.448351 167.383398 
L 133.112224 167.816979 
L 133.776098 168.468542 
L 134.439971 167.649847 
L 135.103844 166.392273 
L 135.767717 167.72512 
L 136.43159 166.004788 
L 137.095464 165.862726 
L 137.759337 165.463772 
L 138.42321 167.945488 
L 139.087083 168.708472 
L 139.750956 167.678703 
L 140.41483 168.282031 
L 141.078703 168.711492 
L 141.742576 167.699994 
L 142.406449 168.181515 
L 143.734196 166.798132 
L 144.398069 168.2238 
L 145.061942 166.332009 
L 145.725815 166.748941 
L 146.389688 166.122338 
L 147.717435 167.656453 
L 148.381308 166.832569 
L 149.045181 166.889629 
L 149.709054 165.901743 
L 150.372928 167.201529 
L 151.036801 166.730096 
L 151.700674 165.272853 
L 152.364547 165.043422 
L 153.02842 165.847002 
L 153.692294 168.107326 
L 154.356167 167.654557 
L 155.02004 166.425133 
L 155.683913 165.676858 
L 156.347786 165.500341 
L 157.01166 164.42445 
L 157.675533 163.963496 
L 158.339406 165.522794 
L 159.003279 164.492333 
L 159.667152 163.774941 
L 160.331026 164.478512 
L 160.994899 166.387478 
L 161.658772 165.903997 
L 162.322645 165.799429 
L 162.986518 164.515677 
L 163.650392 164.99892 
L 164.314265 165.656611 
L 164.978138 167.093189 
L 165.642011 166.461722 
L 166.305884 165.605499 
L 166.969758 165.779094 
L 167.633631 165.704313 
L 168.297504 167.093875 
L 168.961377 166.418018 
L 169.625251 167.861072 
L 170.289124 165.329196 
L 170.952997 168.073752 
L 171.61687 167.064224 
L 172.280743 166.329852 
L 172.944617 166.377104 
L 173.60849 166.656114 
L 174.272363 165.740284 
L 174.936236 166.251264 
L 175.600109 164.30173 
L 176.263983 165.815042 
L 176.927856 165.068183 
L 177.591729 164.568268 
L 178.255602 166.224719 
L 179.583349 165.486633 
L 180.247222 166.335278 
L 180.911095 166.746038 
L 181.574968 166.016106 
L 182.238841 167.006054 
L 182.902715 166.950024 
L 183.566588 166.148265 
L 184.230461 165.534416 
L 184.894334 167.39202 
L 185.558207 166.063806 
L 186.885954 165.807687 
L 187.549827 167.889077 
L 188.2137 167.272769 
L 188.877573 169.699125 
L 189.541447 167.693737 
L 190.20532 166.390072 
L 190.869193 165.510325 
L 191.533066 167.090324 
L 192.196939 167.696244 
L 192.860813 168.690362 
L 193.524686 168.286202 
L 194.188559 166.781266 
L 194.852432 166.289777 
L 195.516305 166.377554 
L 196.180179 166.082274 
L 196.844052 165.993546 
L 197.507925 165.710866 
L 198.171798 164.489059 
L 199.499545 165.999238 
L 200.163418 166.392475 
L 200.827291 166.213691 
L 201.491164 165.498236 
L 202.155037 165.993233 
L 202.818911 167.243928 
L 203.482784 166.984827 
L 204.146657 166.947567 
L 204.81053 166.501544 
L 205.474403 167.075398 
L 206.138277 166.115815 
L 206.80215 165.681095 
L 207.466023 166.534984 
L 208.129896 166.360382 
L 208.793769 166.562555 
L 209.457643 165.849642 
L 210.121516 165.73236 
L 210.785389 164.2022 
L 211.449262 164.526809 
L 212.113135 167.004737 
L 212.777009 166.229262 
L 213.440882 167.113396 
L 214.104755 166.107226 
L 215.432501 166.211141 
L 216.096375 167.428205 
L 216.760248 165.370039 
L 217.424121 164.688577 
L 218.087994 165.87887 
L 218.751867 165.666675 
L 220.079614 164.987123 
L 220.743487 165.765197 
L 221.40736 166.799457 
L 222.071233 167.164738 
L 222.735107 167.073092 
L 223.39898 166.061814 
L 224.062853 167.178714 
L 224.726726 166.250275 
L 225.390599 167.689194 
L 226.718346 167.25196 
L 227.382219 168.031431 
L 228.046092 165.956704 
L 228.709965 164.399673 
L 229.373839 165.618738 
L 230.037712 165.400883 
L 230.701585 166.8457 
L 231.365458 165.935804 
L 232.029331 165.769583 
L 232.693205 165.194631 
L 233.357078 165.800394 
L 234.020951 165.239859 
L 234.684824 165.794848 
L 235.348697 165.836828 
L 236.012571 165.118421 
L 236.676444 165.651091 
L 237.340317 166.392784 
L 238.00419 165.8506 
L 238.668063 165.497367 
L 239.331937 164.702561 
L 239.99581 165.945519 
L 240.659683 165.112939 
L 241.323556 165.493038 
L 241.987429 165.253408 
L 242.651303 166.643635 
L 243.315176 166.127929 
L 243.979049 166.317053 
L 244.642922 167.773007 
L 245.970669 166.911935 
L 246.634542 167.357181 
L 247.298415 166.259418 
L 247.962288 165.481523 
L 248.626161 166.424767 
L 249.290035 167.009395 
L 249.953908 167.747579 
L 250.617781 165.325692 
L 251.281654 164.31145 
L 251.945527 165.833035 
L 252.609401 166.411621 
L 253.273274 165.022834 
L 254.60102 164.906013 
L 255.264893 164.148783 
L 255.928767 163.951125 
L 256.59264 164.861532 
L 257.256513 165.178496 
L 257.920386 166.013182 
L 258.584259 165.665448 
L 259.248133 165.016106 
L 261.239752 166.118123 
L 261.903625 166.888951 
L 262.567499 164.816309 
L 263.231372 164.668856 
L 263.895245 165.91978 
L 264.559118 165.950561 
L 265.222991 166.142803 
L 265.886865 166.856871 
L 266.550738 165.325028 
L 267.878484 164.081519 
L 268.542357 165.665122 
L 269.206231 165.392855 
L 269.870104 164.051022 
L 270.533977 165.365735 
L 271.19785 165.571177 
L 271.861723 165.146355 
L 272.525597 165.835604 
L 273.18947 165.932049 
L 273.853343 164.349209 
L 274.517216 165.958726 
L 275.181089 166.851009 
L 275.844963 166.868797 
L 276.508836 166.407086 
L 277.172709 167.260007 
L 277.836582 166.648822 
L 279.164329 165.974708 
L 279.828202 164.306471 
L 280.492075 165.442664 
L 281.155948 167.768859 
L 281.819821 168.007174 
L 282.483695 167.569934 
L 283.147568 165.944192 
L 283.811441 167.387941 
L 284.475314 166.535264 
L 285.139187 166.448287 
L 285.803061 164.832778 
L 286.466934 165.157959 
L 287.79468 166.382143 
L 288.458553 165.613936 
L 289.122427 165.80211 
L 289.7863 165.655798 
L 290.450173 164.937556 
L 291.114046 165.311495 
L 291.777919 167.008486 
L 293.105666 165.326696 
L 293.769539 164.155789 
L 294.433412 165.763799 
L 295.097285 165.804043 
L 295.761159 164.310462 
L 296.425032 165.025211 
L 297.088905 164.21682 
L 297.752778 164.448369 
L 298.416651 166.396326 
L 299.080525 167.326186 
L 299.744398 166.058916 
L 300.408271 166.433276 
L 301.072144 165.687241 
L 301.736017 165.293121 
L 302.399891 165.984576 
L 303.063764 163.79391 
L 303.727637 164.46731 
L 304.39151 165.6625 
L 305.055383 165.195558 
L 305.719257 165.932429 
L 306.38313 165.623529 
L 307.047003 164.956962 
L 307.710876 166.514418 
L 308.374749 166.40334 
L 309.038623 165.613508 
L 309.702496 165.904137 
L 310.366369 166.840056 
L 311.030242 164.866762 
L 311.694116 164.492194 
L 312.357989 165.32765 
L 313.021862 166.70857 
L 313.685735 166.836513 
L 314.349608 167.254383 
L 315.013482 167.125367 
L 315.677355 165.305552 
L 316.341228 164.280929 
L 317.005101 164.683716 
L 317.668974 164.463444 
L 318.332848 164.756759 
L 318.996721 165.19102 
L 319.660594 167.775401 
L 320.324467 166.961254 
L 320.98834 166.424517 
L 321.652214 167.365708 
L 322.316087 165.761261 
L 322.97996 165.961749 
L 323.643833 164.182898 
L 324.307706 165.116633 
L 324.97158 164.459537 
L 325.635453 163.464707 
L 326.299326 164.449615 
L 326.963199 165.820741 
L 327.627072 165.489134 
L 328.290946 164.495672 
L 329.618692 166.562763 
L 330.282565 165.781664 
L 330.946438 165.974708 
L 331.610312 165.970645 
L 332.274185 166.676129 
L 333.601931 164.936946 
L 334.265804 165.538858 
L 334.929678 166.407938 
L 335.593551 166.400912 
L 336.257424 167.093121 
L 336.921297 167.3877 
L 337.58517 166.445569 
L 338.249044 164.485571 
L 338.912917 164.825339 
L 340.904536 167.256644 
L 341.56841 166.386438 
L 342.896156 165.47841 
L 343.560029 166.706737 
L 344.223902 166.066931 
L 344.887776 166.191645 
L 345.551649 165.57205 
L 346.215522 167.532348 
L 346.879395 167.482622 
L 347.543268 166.761753 
L 348.207142 167.646761 
L 348.871015 166.208514 
L 349.534888 166.254271 
L 350.862634 165.562829 
L 351.526508 164.306686 
L 352.190381 166.189442 
L 352.854254 166.60423 
L 353.518127 165.889138 
L 354.182 165.349925 
L 354.845874 166.028436 
L 355.509747 165.612571 
L 356.17362 166.024285 
L 356.837493 166.736667 
L 357.501366 165.723168 
L 358.16524 164.46543 
L 358.829113 164.992129 
L 359.492986 167.004285 
L 360.156859 166.219985 
L 360.820732 165.623294 
L 361.484606 165.750332 
L 362.148479 165.398521 
L 362.812352 164.879228 
L 363.476225 165.749016 
L 364.140098 165.246107 
L 364.803972 166.777757 
L 365.467845 167.737293 
L 366.131718 166.133417 
L 366.795591 165.163042 
L 367.459464 165.472996 
L 368.123338 165.235015 
L 368.787211 165.181531 
L 369.451084 164.778026 
L 370.114957 166.984008 
L 370.77883 165.461557 
L 371.442704 164.911944 
L 372.106577 166.311978 
L 372.77045 165.817461 
L 373.434323 165.681699 
L 374.098196 165.38287 
L 374.76207 166.009689 
L 375.425943 165.959344 
L 376.089816 166.997987 
L 376.753689 167.028315 
L 378.081436 165.096244 
L 378.745309 165.107479 
L 379.409182 166.524047 
L 380.073055 165.762726 
L 380.736928 166.438757 
L 381.400802 168.084067 
L 382.064675 168.701352 
L 382.728548 167.337293 
L 383.392421 167.55215 
L 384.056294 168.103174 
L 384.720168 167.626357 
L 385.384041 167.552877 
L 386.047914 166.411505 
L 386.711787 168.680103 
L 387.37566 168.454949 
L 388.039534 166.036564 
L 388.703407 166.02893 
L 389.36728 164.735294 
L 390.031153 166.351236 
L 390.695026 166.131648 
L 391.3589 164.862221 
L 392.022773 166.155812 
L 392.686646 165.092059 
L 393.350519 164.762452 
L 394.014392 165.841568 
L 394.678266 164.868274 
L 395.342139 164.246411 
L 396.006012 163.470332 
L 396.669885 164.246945 
L 397.333758 165.687851 
L 398.661505 167.280032 
L 399.325378 164.601665 
L 399.989251 165.781687 
L 400.653124 164.994844 
L 401.316998 166.800617 
L 401.980871 169.113975 
L 402.644744 165.179262 
L 403.308617 164.885362 
L 403.97249 165.525946 
L 404.636364 165.174929 
L 404.636364 165.174929 
" clip-path="url(#pbaee34f716)" style="fill: none; stroke-dasharray: 9.6,2.4,1.5,2.4; stroke-dashoffset: 0; stroke: #008000; stroke-width: 1.5"/>
   </g>
   <g id="line2d_25">
    <path d="M 73.363636 21.090909 
L 74.02751 124.8834 
L 74.691383 137.250312 
L 75.355256 141.170451 
L 76.019129 144.293366 
L 76.683002 145.901895 
L 77.346876 149.283228 
L 78.010749 146.194914 
L 78.674622 147.674051 
L 79.338495 146.511121 
L 80.002368 144.672206 
L 80.666242 148.293683 
L 81.330115 146.830035 
L 81.993988 149.250766 
L 82.657861 150.792778 
L 83.321734 149.038155 
L 83.985608 154.741952 
L 84.649481 152.73329 
L 85.313354 151.994057 
L 85.977227 149.274542 
L 86.6411 153.071611 
L 87.304974 150.190258 
L 87.968847 152.238146 
L 88.63272 152.416364 
L 89.296593 151.54165 
L 89.960466 152.18511 
L 90.62434 151.498658 
L 91.288213 152.344066 
L 91.952086 146.829269 
L 92.615959 148.968563 
L 93.279832 148.340524 
L 93.943706 149.517997 
L 94.607579 152.855662 
L 95.271452 151.957312 
L 95.935325 154.771224 
L 97.263072 149.643634 
L 97.926945 148.131307 
L 98.590818 148.792432 
L 99.254691 150.657323 
L 99.918564 151.531685 
L 100.582438 150.057011 
L 101.910184 150.785881 
L 102.574057 150.198022 
L 103.23793 150.301033 
L 103.901804 152.967505 
L 104.565677 153.166867 
L 105.22955 152.136224 
L 105.893423 154.722861 
L 106.557296 153.998999 
L 107.22117 150.858038 
L 107.885043 151.72254 
L 109.212789 154.132833 
L 109.876662 155.106364 
L 110.540536 149.32 
L 111.204409 147.635956 
L 111.868282 147.654745 
L 112.532155 146.660974 
L 113.196028 147.970557 
L 113.859902 147.689949 
L 114.523775 148.39092 
L 115.187648 152.167919 
L 115.851521 151.235196 
L 116.515394 154.421384 
L 117.179268 154.890562 
L 117.843141 151.840859 
L 118.507014 154.284248 
L 119.170887 153.466963 
L 119.83476 148.587417 
L 120.498634 151.495652 
L 121.162507 151.59882 
L 121.82638 146.919945 
L 122.490253 149.775451 
L 123.154126 153.200093 
L 123.818 153.64192 
L 124.481873 155.865449 
L 125.809619 154.532965 
L 126.473492 153.597995 
L 127.137366 152.939539 
L 127.801239 151.781794 
L 128.465112 153.346297 
L 129.128985 151.791781 
L 129.792858 153.293798 
L 130.456732 154.09006 
L 131.784478 153.24844 
L 132.448351 154.005857 
L 133.112224 153.354658 
L 133.776098 154.340211 
L 134.439971 156.182632 
L 135.103844 154.776533 
L 135.767717 150.701363 
L 136.43159 149.324693 
L 137.095464 149.532523 
L 138.42321 153.572726 
L 139.087083 153.503623 
L 140.41483 154.567353 
L 141.078703 154.481464 
L 141.742576 155.007967 
L 142.406449 151.555783 
L 143.734196 152.456748 
L 144.398069 152.020726 
L 145.061942 153.352638 
L 145.725815 153.647567 
L 146.389688 152.326572 
L 147.053562 149.791913 
L 147.717435 152.367013 
L 148.381308 151.348991 
L 149.045181 153.198548 
L 149.709054 152.442832 
L 150.372928 152.084705 
L 151.036801 150.741357 
L 151.700674 151.149679 
L 153.02842 152.675127 
L 153.692294 152.784239 
L 154.356167 152.777732 
L 155.02004 151.883748 
L 155.683913 151.374155 
L 156.347786 148.544757 
L 157.01166 149.163877 
L 157.675533 145.581994 
L 158.339406 146.651882 
L 159.003279 146.777583 
L 160.331026 150.60871 
L 160.994899 150.809253 
L 161.658772 149.918143 
L 162.322645 150.279403 
L 162.986518 150.374772 
L 163.650392 151.771848 
L 164.314265 150.661055 
L 164.978138 152.513089 
L 165.642011 148.572402 
L 166.305884 145.35173 
L 166.969758 149.673444 
L 167.633631 151.303618 
L 168.297504 152.174932 
L 168.961377 152.109872 
L 169.625251 150.701366 
L 170.289124 151.896013 
L 170.952997 151.62695 
L 171.61687 150.126016 
L 172.280743 150.652408 
L 172.944617 151.99694 
L 173.60849 152.005107 
L 174.272363 150.894057 
L 174.936236 150.120992 
L 175.600109 148.157507 
L 176.263983 148.850322 
L 176.927856 148.85237 
L 177.591729 149.348113 
L 178.255602 146.85713 
L 178.919475 147.678817 
L 179.583349 148.704621 
L 180.247222 150.741597 
L 180.911095 147.15086 
L 181.574968 151.654895 
L 182.238841 148.630325 
L 182.902715 148.390976 
L 183.566588 149.308152 
L 184.230461 150.623282 
L 184.894334 148.932925 
L 185.558207 151.24634 
L 186.222081 151.12646 
L 186.885954 154.384023 
L 187.549827 153.69915 
L 188.2137 155.182812 
L 188.877573 150.879125 
L 189.541447 151.949943 
L 190.20532 150.657571 
L 190.869193 153.19175 
L 191.533066 152.336066 
L 192.196939 153.504694 
L 192.860813 150.251285 
L 193.524686 149.813204 
L 194.188559 150.500821 
L 194.852432 150.075596 
L 195.516305 146.781763 
L 196.180179 149.278057 
L 196.844052 147.724278 
L 197.507925 148.534143 
L 198.171798 150.599714 
L 198.835671 151.290197 
L 199.499545 151.260644 
L 200.163418 150.505781 
L 200.827291 150.019719 
L 202.155037 152.444919 
L 202.818911 151.730507 
L 203.482784 153.459759 
L 204.146657 153.879645 
L 204.81053 154.43247 
L 205.474403 150.611875 
L 206.138277 151.602357 
L 206.80215 150.190445 
L 207.466023 149.821811 
L 208.129896 151.005326 
L 208.793769 150.165042 
L 209.457643 149.976539 
L 210.121516 151.520156 
L 210.785389 149.428176 
L 211.449262 148.130405 
L 212.777009 147.662239 
L 213.440882 151.802944 
L 214.104755 150.961671 
L 214.768628 152.516921 
L 215.432501 151.642866 
L 216.096375 152.485986 
L 216.760248 149.563726 
L 217.424121 150.730874 
L 218.087994 150.517916 
L 218.751867 147.229431 
L 219.415741 149.101206 
L 220.079614 149.167899 
L 220.743487 150.012162 
L 221.40736 151.702377 
L 222.071233 152.740981 
L 222.735107 147.345603 
L 223.39898 148.576139 
L 224.062853 148.604278 
L 224.726726 150.786773 
L 225.390599 152.409436 
L 226.054473 153.652477 
L 226.718346 150.86187 
L 227.382219 145.907309 
L 228.046092 146.015154 
L 228.709965 148.036263 
L 229.373839 149.156511 
L 230.037712 149.031202 
L 230.701585 151.008101 
L 231.365458 150.370658 
L 232.029331 147.019597 
L 232.693205 144.470176 
L 233.357078 145.870698 
L 234.684824 149.678676 
L 235.348697 149.17172 
L 236.012571 149.50096 
L 236.676444 151.429052 
L 237.340317 152.262897 
L 238.00419 151.598392 
L 239.331937 147.845055 
L 239.99581 148.881269 
L 240.659683 148.881021 
L 241.323556 147.981443 
L 241.987429 148.375311 
L 242.651303 149.830516 
L 243.315176 150.642598 
L 243.979049 150.49731 
L 244.642922 148.257629 
L 245.306795 150.99551 
L 245.970669 150.996676 
L 246.634542 150.260162 
L 247.298415 147.64829 
L 247.962288 150.448192 
L 248.626161 152.597399 
L 249.953908 149.711906 
L 250.617781 146.887759 
L 251.281654 148.64224 
L 251.945527 149.214061 
L 252.609401 147.901479 
L 253.937147 148.613687 
L 254.60102 145.991501 
L 255.264893 147.352604 
L 255.928767 146.789872 
L 256.59264 147.448838 
L 257.256513 148.656024 
L 257.920386 150.122651 
L 258.584259 149.651878 
L 259.248133 145.636953 
L 259.912006 144.155224 
L 260.575879 146.979814 
L 261.239752 147.162237 
L 261.903625 146.949785 
L 263.231372 144.919774 
L 263.895245 145.409394 
L 264.559118 148.678437 
L 265.886865 152.317734 
L 266.550738 150.639354 
L 267.214611 151.158094 
L 267.878484 151.110022 
L 268.542357 151.313848 
L 269.206231 150.240652 
L 269.870104 147.905821 
L 270.533977 144.754466 
L 271.861723 149.243622 
L 272.525597 149.772014 
L 273.18947 149.111982 
L 273.853343 149.477256 
L 274.517216 150.846769 
L 275.181089 151.218419 
L 275.844963 150.660668 
L 276.508836 152.560698 
L 277.172709 152.352054 
L 277.836582 150.861358 
L 278.500455 151.91638 
L 279.164329 152.115206 
L 279.828202 150.51017 
L 280.492075 153.166045 
L 281.155948 153.040457 
L 281.819821 149.413528 
L 282.483695 151.350783 
L 283.147568 151.992616 
L 283.811441 150.962069 
L 284.475314 150.472444 
L 285.139187 147.551033 
L 285.803061 148.878203 
L 286.466934 149.115283 
L 287.130807 148.323443 
L 287.79468 148.734596 
L 288.458553 148.647874 
L 289.122427 150.140529 
L 289.7863 150.236881 
L 290.450173 150.485716 
L 291.114046 150.297463 
L 291.777919 151.872557 
L 292.441793 149.995142 
L 293.769539 145.489074 
L 294.433412 147.202879 
L 295.097285 148.516179 
L 295.761159 148.6784 
L 296.425032 149.185931 
L 297.088905 151.900294 
L 297.752778 150.591871 
L 298.416651 148.767677 
L 299.080525 145.324784 
L 299.744398 144.31742 
L 300.408271 144.871005 
L 301.072144 147.28064 
L 301.736017 149.186502 
L 302.399891 145.178032 
L 303.063764 147.080537 
L 303.727637 147.606687 
L 304.39151 147.711439 
L 305.055383 150.155458 
L 305.719257 149.476221 
L 306.38313 149.383674 
L 307.047003 151.063221 
L 307.710876 146.966501 
L 308.374749 145.320232 
L 309.038623 149.166568 
L 309.702496 149.591972 
L 310.366369 147.725935 
L 311.030242 148.202548 
L 311.694116 150.132989 
L 313.021862 149.449232 
L 313.685735 146.470832 
L 314.349608 147.137261 
L 315.013482 145.113357 
L 315.677355 148.617384 
L 316.341228 148.725669 
L 317.005101 149.495478 
L 317.668974 149.274494 
L 318.332848 150.043006 
L 318.996721 152.584419 
L 319.660594 152.286386 
L 320.324467 154.068859 
L 320.98834 151.721722 
L 321.652214 152.149551 
L 322.316087 148.655213 
L 322.97996 147.563696 
L 323.643833 146.220913 
L 324.307706 146.594604 
L 324.97158 149.123063 
L 325.635453 147.78295 
L 326.299326 147.874754 
L 326.963199 148.259738 
L 327.627072 149.605895 
L 328.290946 149.703011 
L 328.954819 152.767394 
L 329.618692 149.047193 
L 330.282565 147.312325 
L 330.946438 148.341689 
L 331.610312 149.657405 
L 332.274185 149.682989 
L 332.938058 147.519089 
L 333.601931 148.173348 
L 334.929678 151.500129 
L 335.593551 152.492804 
L 336.257424 153.986866 
L 336.921297 150.73239 
L 337.58517 150.626913 
L 338.249044 151.728471 
L 338.912917 149.524962 
L 339.57679 151.322843 
L 340.240663 153.443835 
L 340.904536 149.883128 
L 341.56841 151.17089 
L 342.232283 152.204489 
L 342.896156 150.143307 
L 343.560029 152.557719 
L 344.223902 152.209339 
L 345.551649 153.066724 
L 346.215522 153.851731 
L 346.879395 152.297532 
L 347.543268 150.197938 
L 348.207142 151.54467 
L 348.871015 149.206011 
L 349.534888 147.746664 
L 350.198761 148.301501 
L 350.862634 149.161435 
L 351.526508 148.644995 
L 352.190381 148.920229 
L 352.854254 147.747961 
L 353.518127 149.450765 
L 354.182 149.135318 
L 354.845874 147.872499 
L 355.509747 150.088979 
L 356.17362 150.095952 
L 356.837493 148.886961 
L 357.501366 148.076553 
L 358.16524 147.977573 
L 358.829113 148.271607 
L 359.492986 149.123208 
L 360.156859 149.252767 
L 360.820732 150.96308 
L 361.484606 149.963016 
L 362.148479 150.423941 
L 362.812352 149.310842 
L 364.140098 151.305281 
L 364.803972 152.239827 
L 365.467845 148.583798 
L 366.131718 147.072371 
L 367.459464 149.684258 
L 368.123338 150.573148 
L 368.787211 150.930875 
L 369.451084 150.162326 
L 370.114957 150.971567 
L 370.77883 151.083931 
L 371.442704 150.319801 
L 372.106577 150.044082 
L 372.77045 149.196642 
L 373.434323 149.396966 
L 374.098196 149.100701 
L 374.76207 149.178456 
L 375.425943 146.354311 
L 376.089816 146.218017 
L 376.753689 148.613001 
L 377.417562 149.575008 
L 378.081436 150.737563 
L 378.745309 149.768828 
L 379.409182 150.025055 
L 380.073055 149.857167 
L 380.736928 149.443614 
L 381.400802 152.773406 
L 382.064675 152.089094 
L 382.728548 150.849103 
L 383.392421 150.993673 
L 384.056294 151.551195 
L 384.720168 149.809354 
L 385.384041 148.778957 
L 386.047914 149.793339 
L 386.711787 147.360147 
L 387.37566 146.410894 
L 388.039534 148.605831 
L 388.703407 149.683208 
L 389.36728 150.184329 
L 390.031153 151.35065 
L 390.695026 149.378286 
L 391.3589 150.766113 
L 392.022773 151.095418 
L 392.686646 151.722786 
L 394.014392 147.076815 
L 394.678266 145.379548 
L 395.342139 145.701737 
L 396.006012 145.393774 
L 396.669885 146.781811 
L 397.333758 144.571249 
L 397.997632 144.483177 
L 399.325378 146.690179 
L 399.989251 149.148569 
L 400.653124 148.185382 
L 401.316998 148.800975 
L 401.980871 147.639179 
L 402.644744 148.160206 
L 403.308617 148.945378 
L 403.97249 149.995924 
L 404.636364 148.786446 
L 404.636364 148.786446 
" clip-path="url(#pbaee34f716)" style="fill: none; stroke-dasharray: 9.6,2.4,1.5,2.4; stroke-dashoffset: 0; stroke: #008000; stroke-width: 1.5"/>
   </g>
   <g id="line2d_26">
    <path d="M 73.363636 177.44174 
L 74.02751 163.571638 
L 74.691383 121.694659 
L 75.355256 142.033721 
L 76.683002 148.726791 
L 77.346876 161.348814 
L 78.010749 152.076284 
L 78.674622 133.596849 
L 79.338495 160.048787 
L 80.002368 165.361483 
L 80.666242 116.966997 
L 81.330115 126.801715 
L 81.993988 144.463304 
L 82.657861 159.08768 
L 83.321734 157.024089 
L 83.985608 165.536327 
L 84.649481 147.064335 
L 85.313354 149.543417 
L 85.977227 153.780568 
L 87.304974 166.064864 
L 87.968847 154.933245 
L 88.63272 159.058543 
L 89.296593 142.632802 
L 89.960466 161.103084 
L 90.62434 149.820205 
L 91.288213 164.429819 
L 91.952086 144.923455 
L 92.615959 160.066431 
L 93.279832 151.328746 
L 93.943706 159.542646 
L 94.607579 158.390007 
L 95.271452 141.205735 
L 95.935325 158.911778 
L 96.599198 142.953263 
L 97.263072 155.678075 
L 97.926945 145.371065 
L 98.590818 167.982734 
L 99.254691 151.143866 
L 99.918564 155.57102 
L 100.582438 118.991042 
L 101.246311 159.780366 
L 101.910184 128.743855 
L 103.23793 158.918053 
L 103.901804 163.408054 
L 104.565677 170.952537 
L 105.22955 173.688535 
L 105.893423 158.795458 
L 106.557296 155.722518 
L 107.22117 146.609164 
L 107.885043 156.493156 
L 108.548916 161.071983 
L 109.212789 161.901225 
L 109.876662 158.364874 
L 110.540536 143.991495 
L 111.204409 153.18685 
L 111.868282 153.246124 
L 112.532155 153.691363 
L 113.196028 155.289096 
L 113.859902 150.732893 
L 114.523775 151.701636 
L 115.187648 158.137073 
L 115.851521 157.85563 
L 116.515394 143.928137 
L 117.179268 159.678713 
L 117.843141 166.25007 
L 118.507014 159.986497 
L 119.170887 160.354648 
L 119.83476 131.035056 
L 120.498634 168.880296 
L 121.162507 171.392735 
L 121.82638 165.020652 
L 122.490253 155.577236 
L 123.154126 150.14565 
L 123.818 162.218662 
L 124.481873 161.535883 
L 125.145746 168.185933 
L 125.809619 157.304571 
L 126.473492 159.42838 
L 127.137366 155.711626 
L 127.801239 163.726287 
L 128.465112 138.964818 
L 129.128985 163.010347 
L 129.792858 163.392339 
L 130.456732 157.124798 
L 131.120605 161.513024 
L 131.784478 159.855617 
L 132.448351 163.027737 
L 133.112224 112.75454 
L 133.776098 132.525023 
L 134.439971 163.866593 
L 135.103844 149.183748 
L 135.767717 152.744212 
L 136.43159 155.32644 
L 137.095464 157.083374 
L 137.759337 163.996723 
L 138.42321 155.448711 
L 139.087083 159.207064 
L 139.750956 145.228722 
L 140.41483 155.096983 
L 141.078703 155.913426 
L 141.742576 156.120939 
L 142.406449 163.589922 
L 143.070322 151.426073 
L 143.734196 122.221746 
L 144.398069 145.071106 
L 145.061942 142.689226 
L 145.725815 168.951658 
L 146.389688 163.150357 
L 147.053562 143.801839 
L 147.717435 155.903244 
L 148.381308 138.911063 
L 149.045181 160.18508 
L 149.709054 157.354333 
L 150.372928 132.801509 
L 151.036801 156.177207 
L 151.700674 159.013976 
L 152.364547 148.692826 
L 153.02842 166.553245 
L 153.692294 162.978705 
L 154.356167 138.878057 
L 155.02004 146.048833 
L 155.683913 160.603489 
L 156.347786 152.516092 
L 157.01166 158.879649 
L 157.675533 140.774725 
L 159.003279 149.700475 
L 159.667152 150.133035 
L 160.331026 152.534164 
L 160.994899 155.870165 
L 161.658772 119.397578 
L 162.322645 140.90928 
L 162.986518 149.365231 
L 163.650392 161.550074 
L 164.314265 126.807722 
L 164.978138 155.541746 
L 165.642011 134.453894 
L 166.305884 149.632407 
L 166.969758 159.402762 
L 167.633631 156.307992 
L 168.297504 165.075374 
L 168.961377 144.477169 
L 169.625251 151.000772 
L 170.289124 159.833336 
L 170.952997 162.298731 
L 171.61687 121.690562 
L 172.280743 151.293235 
L 172.944617 156.019373 
L 173.60849 162.17832 
L 174.272363 160.184244 
L 174.936236 148.665858 
L 175.600109 152.506995 
L 176.263983 166.84803 
L 176.927856 161.812637 
L 177.591729 148.026646 
L 178.255602 144.766878 
L 178.919475 157.026788 
L 179.583349 160.214079 
L 180.247222 146.94558 
L 180.911095 163.97443 
L 181.574968 155.657399 
L 182.238841 157.802138 
L 182.902715 140.910211 
L 183.566588 139.765994 
L 184.230461 146.748701 
L 184.894334 141.743339 
L 186.222081 164.075095 
L 186.885954 156.296318 
L 187.549827 156.405715 
L 188.2137 166.029587 
L 188.877573 165.369569 
L 189.541447 157.627791 
L 190.20532 129.454537 
L 190.869193 144.593908 
L 191.533066 156.031231 
L 192.196939 162.003678 
L 192.860813 116.797004 
L 193.524686 150.000903 
L 194.188559 155.32719 
L 194.852432 143.936205 
L 195.516305 144.44815 
L 196.180179 139.474089 
L 196.844052 150.008811 
L 197.507925 150.597667 
L 198.171798 153.345881 
L 198.835671 150.789074 
L 199.499545 150.896081 
L 200.163418 160.451572 
L 200.827291 164.95691 
L 201.491164 151.276273 
L 202.155037 157.626615 
L 202.818911 157.706651 
L 203.482784 169.639541 
L 204.146657 160.248382 
L 204.81053 154.21967 
L 205.474403 131.721506 
L 206.138277 148.998679 
L 206.80215 138.857019 
L 207.466023 141.91511 
L 208.793769 156.484638 
L 209.457643 148.011063 
L 210.121516 153.799578 
L 210.785389 137.063669 
L 211.449262 148.757684 
L 212.113135 158.026065 
L 212.777009 120.792893 
L 213.440882 123.842223 
L 214.104755 153.939049 
L 214.768628 155.657832 
L 215.432501 165.693531 
L 216.096375 143.723145 
L 216.760248 142.521996 
L 217.424121 148.225858 
L 218.087994 157.900277 
L 218.751867 138.881553 
L 219.415741 137.870996 
L 220.079614 133.986289 
L 220.743487 134.565052 
L 221.40736 140.959977 
L 222.071233 150.4062 
L 222.735107 163.281794 
L 223.39898 139.494201 
L 224.062853 139.634518 
L 224.726726 149.456328 
L 225.390599 149.593094 
L 226.054473 169.42076 
L 226.718346 151.446148 
L 227.382219 88.797997 
L 228.046092 107.599064 
L 228.709965 150.252652 
L 229.373839 160.945659 
L 230.037712 147.565641 
L 230.701585 156.365794 
L 231.365458 130.627352 
L 232.693205 145.129192 
L 233.357078 162.583945 
L 234.020951 138.749583 
L 234.684824 158.199468 
L 235.348697 149.521534 
L 236.012571 147.62486 
L 236.676444 148.951638 
L 237.340317 144.856713 
L 238.00419 144.214068 
L 238.668063 147.734204 
L 239.331937 115.099527 
L 239.99581 159.435727 
L 240.659683 160.946779 
L 241.323556 134.872448 
L 241.987429 156.499426 
L 242.651303 150.746758 
L 243.315176 139.491323 
L 243.979049 137.368458 
L 244.642922 109.216105 
L 245.306795 121.568874 
L 245.970669 158.880004 
L 246.634542 159.093015 
L 247.298415 121.553495 
L 247.962288 147.892528 
L 248.626161 157.405193 
L 249.290035 150.441176 
L 249.953908 111.185355 
L 250.617781 130.328781 
L 251.281654 145.722024 
L 251.945527 148.601937 
L 252.609401 156.680866 
L 253.273274 131.977284 
L 253.937147 145.748726 
L 254.60102 151.347515 
L 255.264893 154.856127 
L 255.928767 136.209407 
L 256.59264 158.926611 
L 257.256513 111.370303 
L 257.920386 158.886814 
L 258.584259 149.800975 
L 259.248133 111.185039 
L 259.912006 121.179843 
L 260.575879 121.136137 
L 261.239752 107.38726 
L 261.903625 159.256873 
L 262.567499 148.282166 
L 263.231372 130.24475 
L 263.895245 95.429897 
L 264.559118 136.005658 
L 265.222991 131.205459 
L 265.886865 153.907183 
L 266.550738 152.922905 
L 267.214611 160.244595 
L 267.878484 122.881167 
L 268.542357 161.706082 
L 269.206231 155.026137 
L 269.870104 143.723395 
L 270.533977 142.454966 
L 271.19785 146.456817 
L 271.861723 134.094214 
L 272.525597 152.247518 
L 273.18947 156.527493 
L 273.853343 152.264867 
L 274.517216 122.027327 
L 275.181089 160.158669 
L 275.844963 156.288703 
L 276.508836 147.690929 
L 277.172709 163.75087 
L 277.836582 119.382517 
L 278.500455 137.209182 
L 279.164329 134.470525 
L 279.828202 142.174373 
L 280.492075 157.561755 
L 281.155948 146.173485 
L 281.819821 92.764045 
L 282.483695 133.2973 
L 283.147568 146.023497 
L 283.811441 130.408788 
L 284.475314 150.967647 
L 285.139187 160.981642 
L 285.803061 146.809506 
L 286.466934 162.299303 
L 287.130807 152.638523 
L 287.79468 145.992846 
L 289.122427 158.756121 
L 289.7863 163.792457 
L 290.450173 147.714483 
L 291.114046 150.441053 
L 291.777919 158.490692 
L 292.441793 163.193226 
L 293.105666 114.775554 
L 293.769539 117.171206 
L 294.433412 144.612648 
L 295.097285 144.677115 
L 295.761159 124.18379 
L 296.425032 137.156837 
L 297.088905 163.750191 
L 297.752778 155.013693 
L 298.416651 108.38012 
L 299.080525 72.907988 
L 299.744398 74.636357 
L 300.408271 109.850256 
L 301.072144 132.727503 
L 301.736017 138.24591 
L 302.399891 146.349371 
L 303.063764 130.326862 
L 303.727637 136.248185 
L 304.39151 135.407844 
L 305.055383 151.846164 
L 305.719257 150.096723 
L 306.38313 133.651086 
L 307.047003 158.420209 
L 307.710876 102.410389 
L 308.374749 100.867674 
L 309.038623 137.961027 
L 309.702496 159.683653 
L 310.366369 121.038497 
L 311.030242 152.876215 
L 311.694116 164.387673 
L 312.357989 144.825734 
L 313.021862 148.003407 
L 313.685735 92.336672 
L 314.349608 106.196174 
L 315.013482 116.708512 
L 315.677355 143.197945 
L 316.341228 144.359837 
L 317.005101 165.793815 
L 317.668974 156.913202 
L 318.332848 149.795159 
L 318.996721 167.296343 
L 319.660594 150.297546 
L 320.324467 144.3245 
L 320.98834 146.88374 
L 321.652214 158.81553 
L 322.316087 158.698071 
L 322.97996 151.390811 
L 323.643833 148.463762 
L 324.307706 149.861535 
L 324.97158 139.446231 
L 325.635453 143.956226 
L 326.299326 139.933328 
L 326.963199 130.852448 
L 327.627072 156.936523 
L 328.290946 137.450914 
L 328.954819 157.576552 
L 329.618692 155.920813 
L 330.282565 150.84588 
L 330.946438 157.248115 
L 331.610312 140.122883 
L 332.274185 115.359009 
L 332.938058 155.282431 
L 333.601931 160.543235 
L 334.265804 159.60679 
L 334.929678 129.945572 
L 335.593551 149.858793 
L 336.257424 163.492655 
L 336.921297 160.847623 
L 337.58517 151.61184 
L 338.249044 152.661252 
L 338.912917 151.34352 
L 339.57679 153.902633 
L 340.904536 165.107055 
L 341.56841 145.116021 
L 342.232283 142.830349 
L 342.896156 109.220373 
L 343.560029 153.991873 
L 344.223902 147.285131 
L 344.887776 149.640828 
L 345.551649 162.813915 
L 346.215522 152.883988 
L 346.879395 135.81615 
L 347.543268 138.570015 
L 348.207142 159.10786 
L 349.534888 148.061741 
L 350.198761 156.340579 
L 350.862634 152.086225 
L 351.526508 156.872673 
L 352.190381 143.880255 
L 352.854254 125.498143 
L 353.518127 161.688934 
L 354.182 155.29539 
L 354.845874 145.358996 
L 355.509747 154.028865 
L 356.17362 158.752744 
L 356.837493 140.353672 
L 357.501366 140.755995 
L 358.16524 126.235199 
L 358.829113 149.492472 
L 360.156859 143.203191 
L 360.820732 158.753998 
L 361.484606 150.975324 
L 362.148479 162.443978 
L 362.812352 151.957272 
L 363.476225 139.70632 
L 364.140098 157.739993 
L 364.803972 161.422993 
L 365.467845 143.053797 
L 366.131718 147.425085 
L 366.795591 154.818891 
L 367.459464 143.086288 
L 368.123338 156.778792 
L 368.787211 159.635703 
L 369.451084 151.02135 
L 370.114957 166.370247 
L 370.77883 164.195844 
L 371.442704 148.759555 
L 372.106577 138.287911 
L 372.77045 147.842359 
L 373.434323 151.713271 
L 374.098196 140.13106 
L 374.76207 125.177119 
L 375.425943 117.024048 
L 376.753689 139.74879 
L 377.417562 153.744162 
L 378.081436 155.731437 
L 378.745309 128.188522 
L 379.409182 149.718967 
L 380.073055 158.415368 
L 380.736928 151.28523 
L 381.400802 156.984092 
L 382.064675 148.319414 
L 382.728548 160.427245 
L 383.392421 164.502012 
L 384.056294 159.096231 
L 384.720168 162.489363 
L 385.384041 158.838574 
L 386.047914 115.837053 
L 387.37566 157.888257 
L 388.039534 138.915242 
L 388.703407 162.095129 
L 389.36728 145.535919 
L 390.031153 125.593523 
L 390.695026 153.569033 
L 391.3589 158.874006 
L 392.022773 156.444844 
L 392.686646 161.701347 
L 393.350519 128.15858 
L 394.014392 125.24002 
L 394.678266 149.246845 
L 395.342139 133.934001 
L 396.006012 136.476247 
L 396.669885 145.205506 
L 397.333758 78.962883 
L 397.997632 84.94284 
L 398.661505 130.874593 
L 399.325378 146.563448 
L 399.989251 152.295032 
L 400.653124 143.927537 
L 401.316998 128.414397 
L 401.980871 105.54534 
L 402.644744 147.619938 
L 403.308617 155.710767 
L 403.97249 153.226792 
L 404.636364 143.902081 
L 404.636364 143.902081 
" clip-path="url(#pbaee34f716)" style="fill: none; stroke: #ff0000; stroke-width: 1.5; stroke-linecap: square"/>
   </g>
   <g id="patch_3">
    <path d="M 56.8 237.2 
L 56.8 10.8 
" style="fill: none; stroke: #000000; stroke-width: 0.8; stroke-linejoin: miter; stroke-linecap: square"/>
   </g>
   <g id="patch_4">
    <path d="M 421.2 237.2 
L 421.2 10.8 
" style="fill: none; stroke: #000000; stroke-width: 0.8; stroke-linejoin: miter; stroke-linecap: square"/>
   </g>
   <g id="patch_5">
    <path d="M 56.8 237.2 
L 421.2 237.2 
" style="fill: none; stroke: #000000; stroke-width: 0.8; stroke-linejoin: miter; stroke-linecap: square"/>
   </g>
   <g id="patch_6">
    <path d="M 56.8 10.8 
L 421.2 10.8 
" style="fill: none; stroke: #000000; stroke-width: 0.8; stroke-linejoin: miter; stroke-linecap: square"/>
   </g>
   <g id="text_14">
    <!-- Population's average and best fitness -->
    <g transform="translate(126.369687 4.8)scale(0.12 -0.12)">
     <defs>
      <path id="DejaVuSans-50" d="M 1259 4147 
L 1259 2394 
L 2053 2394 
Q 2494 2394 2734 2622 
Q 2975 2850 2975 3272 
Q 2975 3691 2734 3919 
Q 2494 4147 2053 4147 
L 1259 4147 
z
M 628 4666 
L 2053 4666 
Q 2838 4666 3239 4311 
Q 3641 3956 3641 3272 
Q 3641 2581 3239 2228 
Q 2838 1875 2053 1875 
L 1259 1875 
L 1259 0 
L 628 0 
L 628 4666 
z
" transform="scale(0.015625)"/>
      <path id="DejaVuSans-70" d="M 1159 525 
L 1159 -1331 
L 581 -1331 
L 581 3500 
L 1159 3500 
L 1159 2969 
Q 1341 3281 1617 3432 
Q 1894 3584 2278 3584 
Q 2916 3584 3314 3078 
Q 3713 2572 3713 1747 
Q 3713 922 3314 415 
Q 2916 -91 2278 -91 
Q 1894 -91 1617 61 
Q 1341 213 1159 525 
z
M 3116 1747 
Q 3116 2381 2855 2742 
Q 2594 3103 2138 3103 
Q 1681 3103 1420 2742 
Q 1159 2381 1159 1747 
Q 1159 1113 1420 752 
Q 1681 391 2138 391 
Q 2594 391 2855 752 
Q 3116 1113 3116 1747 
z
" transform="scale(0.015625)"/>
      <path id="DejaVuSans-75" d="M 544 1381 
L 544 3500 
L 1119 3500 
L 1119 1403 
Q 1119 906 1312 657 
Q 1506 409 1894 409 
Q 2359 409 2629 706 
Q 2900 1003 2900 1516 
L 2900 3500 
L 3475 3500 
L 3475 0 
L 2900 0 
L 2900 538 
Q 2691 219 2414 64 
Q 2138 -91 1772 -91 
Q 1169 -91 856 284 
Q 544 659 544 1381 
z
M 1991 3584 
L 1991 3584 
z
" transform="scale(0.015625)"/>
      <path id="DejaVuSans-6c" d="M 603 4863 
L 1178 4863 
L 1178 0 
L 603 0 
L 603 4863 
z
" transform="scale(0.015625)"/>
      <path id="DejaVuSans-27" d="M 1147 4666 
L 1147 2931 
L 616 2931 
L 616 4666 
L 1147 4666 
z
" transform="scale(0.015625)"/>
      <path id="DejaVuSans-20" transform="scale(0.015625)"/>
      <path id="DejaVuSans-76" d="M 191 3500 
L 800 3500 
L 1894 563 
L 2988 3500 
L 3597 3500 
L 2284 0 
L 1503 0 
L 191 3500 
z
" transform="scale(0.015625)"/>
      <path id="DejaVuSans-67" d="M 2906 1791 
Q 2906 2416 2648 2759 
Q 2391 3103 1925 3103 
Q 1463 3103 1205 2759 
Q 947 2416 947 1791 
Q 947 1169 1205 825 
Q 1463 481 1925 481 
Q 2391 481 2648 825 
Q 2906 1169 2906 1791 
z
M 3481 434 
Q 3481 -459 3084 -895 
Q 2688 -1331 1869 -1331 
Q 1566 -1331 1297 -1286 
Q 1028 -1241 775 -1147 
L 775 -588 
Q 1028 -725 1275 -790 
Q 1522 -856 1778 -856 
Q 2344 -856 2625 -561 
Q 2906 -266 2906 331 
L 2906 616 
Q 2728 306 2450 153 
Q 2172 0 1784 0 
Q 1141 0 747 490 
Q 353 981 353 1791 
Q 353 2603 747 3093 
Q 1141 3584 1784 3584 
Q 2172 3584 2450 3431 
Q 2728 3278 2906 2969 
L 2906 3500 
L 3481 3500 
L 3481 434 
z
" transform="scale(0.015625)"/>
      <path id="DejaVuSans-64" d="M 2906 2969 
L 2906 4863 
L 3481 4863 
L 3481 0 
L 2906 0 
L 2906 525 
Q 2725 213 2448 61 
Q 2172 -91 1784 -91 
Q 1150 -91 751 415 
Q 353 922 353 1747 
Q 353 2572 751 3078 
Q 1150 3584 1784 3584 
Q 2172 3584 2448 3432 
Q 2725 3281 2906 2969 
z
M 947 1747 
Q 947 1113 1208 752 
Q 1469 391 1925 391 
Q 2381 391 2643 752 
Q 2906 1113 2906 1747 
Q 2906 2381 2643 2742 
Q 2381 3103 1925 3103 
Q 1469 3103 1208 2742 
Q 947 2381 947 1747 
z
" transform="scale(0.015625)"/>
      <path id="DejaVuSans-62" d="M 3116 1747 
Q 3116 2381 2855 2742 
Q 2594 3103 2138 3103 
Q 1681 3103 1420 2742 
Q 1159 2381 1159 1747 
Q 1159 1113 1420 752 
Q 1681 391 2138 391 
Q 2594 391 2855 752 
Q 3116 1113 3116 1747 
z
M 1159 2969 
Q 1341 3281 1617 3432 
Q 1894 3584 2278 3584 
Q 2916 3584 3314 3078 
Q 3713 2572 3713 1747 
Q 3713 922 3314 415 
Q 2916 -91 2278 -91 
Q 1894 -91 1617 61 
Q 1341 213 1159 525 
L 1159 0 
L 581 0 
L 581 4863 
L 1159 4863 
L 1159 2969 
z
" transform="scale(0.015625)"/>
      <path id="DejaVuSans-66" d="M 2375 4863 
L 2375 4384 
L 1825 4384 
Q 1516 4384 1395 4259 
Q 1275 4134 1275 3809 
L 1275 3500 
L 2222 3500 
L 2222 3053 
L 1275 3053 
L 1275 0 
L 697 0 
L 697 3053 
L 147 3053 
L 147 3500 
L 697 3500 
L 697 3744 
Q 697 4328 969 4595 
Q 1241 4863 1831 4863 
L 2375 4863 
z
" transform="scale(0.015625)"/>
     </defs>
     <use xlink:href="#DejaVuSans-50"/>
     <use xlink:href="#DejaVuSans-6f" x="56.677734"/>
     <use xlink:href="#DejaVuSans-70" x="117.859375"/>
     <use xlink:href="#DejaVuSans-75" x="181.335938"/>
     <use xlink:href="#DejaVuSans-6c" x="244.714844"/>
     <use xlink:href="#DejaVuSans-61" x="272.498047"/>
     <use xlink:href="#DejaVuSans-74" x="333.777344"/>
     <use xlink:href="#DejaVuSans-69" x="372.986328"/>
     <use xlink:href="#DejaVuSans-6f" x="400.769531"/>
     <use xlink:href="#DejaVuSans-6e" x="461.951172"/>
     <use xlink:href="#DejaVuSans-27" x="525.330078"/>
     <use xlink:href="#DejaVuSans-73" x="552.820312"/>
     <use xlink:href="#DejaVuSans-20" x="604.919922"/>
     <use xlink:href="#DejaVuSans-61" x="636.707031"/>
     <use xlink:href="#DejaVuSans-76" x="697.986328"/>
     <use xlink:href="#DejaVuSans-65" x="757.166016"/>
     <use xlink:href="#DejaVuSans-72" x="818.689453"/>
     <use xlink:href="#DejaVuSans-61" x="859.802734"/>
     <use xlink:href="#DejaVuSans-67" x="921.082031"/>
     <use xlink:href="#DejaVuSans-65" x="984.558594"/>
     <use xlink:href="#DejaVuSans-20" x="1046.082031"/>
     <use xlink:href="#DejaVuSans-61" x="1077.869141"/>
     <use xlink:href="#DejaVuSans-6e" x="1139.148438"/>
     <use xlink:href="#DejaVuSans-64" x="1202.527344"/>
     <use xlink:href="#DejaVuSans-20" x="1266.003906"/>
     <use xlink:href="#DejaVuSans-62" x="1297.791016"/>
     <use xlink:href="#DejaVuSans-65" x="1361.267578"/>
     <use xlink:href="#DejaVuSans-73" x="1422.791016"/>
     <use xlink:href="#DejaVuSans-74" x="1474.890625"/>
     <use xlink:href="#DejaVuSans-20" x="1514.099609"/>
     <use xlink:href="#DejaVuSans-66" x="1545.886719"/>
     <use xlink:href="#DejaVuSans-69" x="1581.091797"/>
     <use xlink:href="#DejaVuSans-74" x="1608.875"/>
     <use xlink:href="#DejaVuSans-6e" x="1648.083984"/>
     <use xlink:href="#DejaVuSans-65" x="1711.462891"/>
     <use xlink:href="#DejaVuSans-73" x="1772.986328"/>
     <use xlink:href="#DejaVuSans-73" x="1825.085938"/>
    </g>
   </g>
   <g id="legend_1">
    <g id="patch_7">
     <path d="M 341.259375 77.5125 
L 414.2 77.5125 
Q 416.2 77.5125 416.2 75.5125 
L 416.2 17.8 
Q 416.2 15.8 414.2 15.8 
L 341.259375 15.8 
Q 339.259375 15.8 339.259375 17.8 
L 339.259375 75.5125 
Q 339.259375 77.5125 341.259375 77.5125 
z
" style="fill: #ffffff; opacity: 0.8; stroke: #cccccc; stroke-linejoin: miter"/>
    </g>
    <g id="line2d_27">
     <path d="M 343.259375 23.898438 
L 353.259375 23.898438 
L 363.259375 23.898438 
" style="fill: none; stroke: #0000ff; stroke-width: 1.5; stroke-linecap: square"/>
    </g>
    <g id="text_15">
     <!-- average -->
     <g transform="translate(371.259375 27.398438)scale(0.1 -0.1)">
      <use xlink:href="#DejaVuSans-61"/>
      <use xlink:href="#DejaVuSans-76" x="61.279297"/>
      <use xlink:href="#DejaVuSans-65" x="120.458984"/>
      <use xlink:href="#DejaVuSans-72" x="181.982422"/>
      <use xlink:href="#DejaVuSans-61" x="223.095703"/>
      <use xlink:href="#DejaVuSans-67" x="284.375"/>
      <use xlink:href="#DejaVuSans-65" x="347.851562"/>
     </g>
    </g>
    <g id="line2d_28">
     <path d="M 343.259375 38.576562 
L 353.259375 38.576562 
L 363.259375 38.576562 
" style="fill: none; stroke-dasharray: 9.6,2.4,1.5,2.4; stroke-dashoffset: 0; stroke: #008000; stroke-width: 1.5"/>
    </g>
    <g id="text_16">
     <!-- -1 sd -->
     <g transform="translate(371.259375 42.076562)scale(0.1 -0.1)">
      <defs>
       <path id="DejaVuSans-2d" d="M 313 2009 
L 1997 2009 
L 1997 1497 
L 313 1497 
L 313 2009 
z
" transform="scale(0.015625)"/>
      </defs>
      <use xlink:href="#DejaVuSans-2d"/>
      <use xlink:href="#DejaVuSans-31" x="36.083984"/>
      <use xlink:href="#DejaVuSans-20" x="99.707031"/>
      <use xlink:href="#DejaVuSans-73" x="131.494141"/>
      <use xlink:href="#DejaVuSans-64" x="183.59375"/>
     </g>
    </g>
    <g id="line2d_29">
     <path d="M 343.259375 53.254687 
L 353.259375 53.254687 
L 363.259375 53.254687 
" style="fill: none; stroke-dasharray: 9.6,2.4,1.5,2.4; stroke-dashoffset: 0; stroke: #008000; stroke-width: 1.5"/>
    </g>
    <g id="text_17">
     <!-- +1 sd -->
     <g transform="translate(371.259375 56.754687)scale(0.1 -0.1)">
      <defs>
       <path id="DejaVuSans-2b" d="M 2944 4013 
L 2944 2272 
L 4684 2272 
L 4684 1741 
L 2944 1741 
L 2944 0 
L 2419 0 
L 2419 1741 
L 678 1741 
L 678 2272 
L 2419 2272 
L 2419 4013 
L 2944 4013 
z
" transform="scale(0.015625)"/>
      </defs>
      <use xlink:href="#DejaVuSans-2b"/>
      <use xlink:href="#DejaVuSans-31" x="83.789062"/>
      <use xlink:href="#DejaVuSans-20" x="147.412109"/>
      <use xlink:href="#DejaVuSans-73" x="179.199219"/>
      <use xlink:href="#DejaVuSans-64" x="231.298828"/>
     </g>
    </g>
    <g id="line2d_30">
     <path d="M 343.259375 67.932813 
L 353.259375 67.932813 
L 363.259375 67.932813 
" style="fill: none; stroke: #ff0000; stroke-width: 1.5; stroke-linecap: square"/>
    </g>
    <g id="text_18">
     <!-- best -->
     <g transform="translate(371.259375 71.432813)scale(0.1 -0.1)">
      <use xlink:href="#DejaVuSans-62"/>
      <use xlink:href="#DejaVuSans-65" x="63.476562"/>
      <use xlink:href="#DejaVuSans-73" x="125"/>
      <use xlink:href="#DejaVuSans-74" x="177.099609"/>
     </g>
    </g>
   </g>
  </g>
 </g>
 <defs>
  <clipPath id="pbaee34f716">
   <rect x="56.8" y="10.8" width="364.4" height="226.4"/>
  </clipPath>
 </defs>
</svg>
