<?xml version="1.0" encoding="UTF-8" standalone="no"?>
<!DOCTYPE svg PUBLIC "-//W3C//DTD SVG 1.1//EN"
 "http://www.w3.org/Graphics/SVG/1.1/DTD/svg11.dtd">
<!-- Generated by graphviz version 2.43.0 (0)
 -->
<!-- Title: %3 Pages: 1 -->
<svg width="112pt" height="360pt"
 viewBox="0.00 0.00 112.01 359.50" xmlns="http://www.w3.org/2000/svg" xmlns:xlink="http://www.w3.org/1999/xlink">
<g id="graph0" class="graph" transform="scale(1 1) rotate(0) translate(4 355.5)">
<title>%3</title>
<polygon fill="white" stroke="transparent" points="-4,4 -4,-355.5 108.01,-355.5 108.01,4 -4,4"/>
<!-- x -->
<g id="node1" class="node">
<title>x</title>
<polygon fill="lightgray" stroke="black" points="37.26,-351.5 15.26,-351.5 15.26,-333.5 37.26,-333.5 37.26,-351.5"/>
<text text-anchor="middle" x="26.26" y="-340.3" font-family="Times,serif" font-size="9.00">x</text>
</g>
<!-- u -->
<g id="node2" class="node">
<title>u</title>
<ellipse fill="lightblue" stroke="black" cx="16.26" cy="-16.26" rx="16.03" ry="16.03"/>
<text text-anchor="middle" x="16.26" y="-14.06" font-family="Times,serif" font-size="9.00">u</text>
</g>
<!-- x&#45;&gt;u -->
<g id="edge1" class="edge">
<title>x&#45;&gt;u</title>
<path fill="none" stroke="green" stroke-width="0.37" d="M24.78,-333.46C18.93,-300.56 -1.85,-173.12 7.26,-68.53 8.01,-59.92 9.46,-50.59 10.98,-42.28"/>
<polygon fill="green" stroke="green" stroke-width="0.37" points="14.42,-42.91 12.89,-32.43 7.55,-41.58 14.42,-42.91"/>
</g>
<!-- 141 -->
<g id="node4" class="node">
<title>141</title>
<ellipse fill="white" stroke="black" cx="45.26" cy="-187.26" rx="25" ry="25"/>
<text text-anchor="middle" x="45.26" y="-185.06" font-family="Times,serif" font-size="9.00">141</text>
</g>
<!-- x&#45;&gt;141 -->
<g id="edge2" class="edge">
<title>x&#45;&gt;141</title>
<path fill="none" stroke="red" stroke-width="0.14" d="M27.28,-333.27C29.84,-312.67 36.61,-258.01 41.08,-222"/>
<polygon fill="red" stroke="red" stroke-width="0.14" points="44.57,-222.28 42.33,-211.93 37.62,-221.42 44.57,-222.28"/>
</g>
<!-- 815 -->
<g id="node5" class="node">
<title>815</title>
<ellipse fill="white" stroke="black" cx="79.26" cy="-272.76" rx="25" ry="25"/>
<text text-anchor="middle" x="79.26" y="-270.56" font-family="Times,serif" font-size="9.00">815</text>
</g>
<!-- x&#45;&gt;815 -->
<g id="edge3" class="edge">
<title>x&#45;&gt;815</title>
<path fill="none" stroke="red" stroke-width="0.78" d="M32.55,-333.47C38.88,-325.38 48.99,-312.45 58.19,-300.69"/>
<polygon fill="red" stroke="red" stroke-width="0.78" points="60.95,-302.84 64.36,-292.81 55.44,-298.53 60.95,-302.84"/>
</g>
<!-- 1132 -->
<g id="node3" class="node">
<title>1132</title>
<ellipse fill="white" stroke="black" cx="45.26" cy="-97.52" rx="28.98" ry="28.98"/>
<text text-anchor="middle" x="45.26" y="-95.32" font-family="Times,serif" font-size="9.00">1132</text>
</g>
<!-- 1132&#45;&gt;u -->
<g id="edge6" class="edge">
<title>1132&#45;&gt;u</title>
<path fill="none" stroke="red" stroke-width="0.33" d="M35.61,-70.13C32.21,-60.84 28.41,-50.45 25.08,-41.36"/>
<polygon fill="red" stroke="red" stroke-width="0.33" points="28.29,-39.96 21.57,-31.77 21.72,-42.36 28.29,-39.96"/>
</g>
<!-- 141&#45;&gt;1132 -->
<g id="edge5" class="edge">
<title>141&#45;&gt;1132</title>
<path fill="none" stroke="green" stroke-width="0.38" d="M45.26,-162.28C45.26,-154.49 45.26,-145.64 45.26,-137.06"/>
<polygon fill="green" stroke="green" stroke-width="0.38" points="48.76,-136.82 45.26,-126.82 41.76,-136.82 48.76,-136.82"/>
</g>
<!-- 815&#45;&gt;141 -->
<g id="edge4" class="edge">
<title>815&#45;&gt;141</title>
<path fill="none" stroke="red" stroke-width="0.33" d="M70.15,-249.38C66.46,-240.32 62.14,-229.7 58.14,-219.88"/>
<polygon fill="red" stroke="red" stroke-width="0.33" points="61.3,-218.35 54.28,-210.41 54.81,-220.99 61.3,-218.35"/>
</g>
</g>
</svg>
